<?xml version="1.0" encoding="utf-8"?>
<!-- Generator: Adobe Illustrator 24.3.0, SVG Export Plug-In . SVG Version: 6.00 Build 0)  -->
<svg version="1.1" id="Layer_1" xmlns="http://www.w3.org/2000/svg" xmlns:xlink="http://www.w3.org/1999/xlink" x="0px" y="0px"
	 viewBox="0 0 156 31" width="156" height="31" style="enable-background:new 0 0 156 31;" xml:space="preserve">
<style type="text/css">
	.st0{fill:#FFFFFF;}
	.st1{fill:#00DCAA;}
	.st2{clip-path:url(#SVGID_2_);}
	.st3{fill:#231F20;}
</style>
<g>
	<g>
		<path class="st0" d="M17.5,1H0.1v17.3h17.3L17.5,1L17.5,1z M11.6,15.7c-0.1-0.8-0.2-1.8-0.2-3.1c0-0.9-0.1-1.2-0.4-1.3
			c-0.2-0.2-0.5-0.3-1.2-0.3H6.4v4.7H4v-12h7.3c0.9,0,1.5,0.1,1.9,0.5c0.5,0.5,0.8,1.1,0.8,2.9c0,2.1-0.8,2.7-2.2,2.9v0.2
			c1.2,0.2,2,0.5,2,2.2c0.1,1.5,0.1,2.6,0.2,3.2H11.6z"/>
		<path class="st0" d="M11.2,5.9c-0.1-0.1-0.3-0.1-0.8-0.1H6.4v3.4h3.9c0.5,0,0.7-0.1,0.8-0.2c0.2-0.2,0.3-0.5,0.3-1.5
			C11.5,6.3,11.3,6,11.2,5.9z"/>
	</g>
	<g>
		<path class="st0" d="M34.8,1v17.3h17.3V1H34.8z M44.9,14.9h-3.1v-3.1h3.1V14.9z M44.9,7.9h-3.1V4.8h3.1V7.9z"/>
	</g>
	<rect x="17.5" y="1" class="st0" width="17.3" height="17.3"/>
	<rect x="34.8" y="1" class="st0" width="17.3" height="17.3"/>
	<g>
		<rect x="17.5" y="1" width="17.3" height="17.3"/>
		<polygon class="st0" points="20.7,5.6 20.7,3.7 30.9,3.7 30.9,7.6 28.8,7.6 28.8,5.6 24.4,5.6 24.4,8.6 27.9,8.6 27.9,10.4 
			24.4,10.4 24.4,13.8 28.9,13.8 28.9,11.6 31,11.6 31,15.7 20.7,15.7 20.7,13.8 22.3,13.8 22.3,5.6 		"/>
	</g>
	<path class="st0" d="M17.5,18.3H0.1V1h17.3L17.5,18.3z M6.4,9.1V5.7h3.9c0.5,0,0.7,0,0.8,0.1c0.2,0.2,0.3,0.4,0.3,1.5
		c0,1.1-0.2,1.4-0.3,1.5c-0.1,0.1-0.3,0.2-0.8,0.2H6.4z M11.4,12.6c0,1.3,0.1,2.3,0.2,3.1H14c-0.1-0.6-0.1-1.7-0.2-3.2
		c-0.1-1.7-0.8-2-2-2.2v-0.2c1.4-0.2,2.2-0.8,2.2-2.9c0-1.8-0.3-2.4-0.8-2.9c-0.4-0.4-1-0.5-1.9-0.5H4v12h2.5V11h3.4
		c0.7,0,1,0.1,1.2,0.3C11.3,11.5,11.4,11.7,11.4,12.6z"/>
	<rect x="41.7" y="4.8" width="3.1" height="3.1"/>
	<rect x="41.7" y="11.7" width="3.1" height="3.1"/>
</g>
<g>
	<rect x="52.2" y="1" transform="matrix(-1 -4.498547e-11 4.498547e-11 -1 121.5977 19.1849)" width="17.2" height="17.2"/>
	<polygon class="st1" points="69.4,8.1 61.1,8.1 62.3,1 52.2,11.1 60.5,11.1 59.3,18.2 	"/>
	<g>
		<polygon points="52.3,8.3 52.3,8.1 52.2,8.1 52.2,8.1 52.2,8.3 52.3,8.3 		"/>
		<polygon points="52.2,1 52.2,1.1 52.2,1.1 52.3,1.2 52.4,1.1 		"/>
		<path d="M52.4,1.6l-0.1,0.1V2l0,0l0,0c0,0,0,0,0,0v0.2l0,0l0,0c0,0,0-0.1,0-0.1c0,0,0,0,0.1,0.1l0,0l0.1-0.1l0,0c0,0,0,0-0.1-0.1
			l0,0l0,0l0,0l0,0l-0.1-0.1l0.1,0l0,0L52.4,1.6L52.4,1.6z"/>
		<polygon points="52.5,6.5 52.4,6.3 52.3,6.4 52.4,6.6 		"/>
		<path d="M52.6,5.4L52.6,5.4L52.6,5.4l-0.1,0c0,0,0,0,0,0.1l0,0l0.1,0.1l0,0C52.5,5.5,52.6,5.5,52.6,5.4z"/>
		<polygon points="52.5,5.9 52.3,6 52.4,6.1 52.6,6 		"/>
		<polygon points="52.2,5.5 52.2,5.5 52.2,5.6 52.3,5.6 52.3,5.5 		"/>
		<polygon points="54.1,5.6 53.8,5.5 53.8,5.6 53.8,5.6 53.9,5.8 54,5.8 53.9,5.7 54,5.7 		"/>
		<polygon points="52.2,4.1 52.2,4.1 52.2,4.3 52.2,4.3 52.2,4.3 52.3,4.3 52.4,4.2 		"/>
		<path d="M52.7,5.9C52.7,5.9,52.7,5.8,52.7,5.9l0.1-0.1l-0.1-0.1l0,0C52.6,5.8,52.6,5.8,52.7,5.9l-0.1,0L52.7,5.9L52.7,5.9z"/>
		<path d="M52.3,1.4C52.3,1.4,52.3,1.3,52.3,1.4l0.1-0.1l-0.1,0l0,0l0,0v0.1l0,0c0,0,0,0,0,0L52.3,1.4L52.3,1.4L52.3,1.4z"/>
		<polygon points="52.3,3.8 52.2,3.9 52.2,4 52.2,4.1 52.3,4 52.3,3.9 		"/>
		<path d="M52.3,5.1L52.3,5.1L52.3,5.1C52.2,5.2,52.2,5.2,52.3,5.1L52.3,5.1z"/>
		<path d="M52.6,2.4c0,0,0-0.1,0-0.1l0,0l-0.1,0.1l0,0l0,0l0,0l0,0l0,0l0,0l0,0c0,0,0,0.1,0,0.1l0,0l-0.1,0l0,0v0.2l0.1,0l0.1-0.2
			l0,0l0,0.1l0.2-0.1L52.6,2.4L52.6,2.4L52.6,2.4z"/>
		<path d="M52.4,7L52.4,7l-0.1,0c0,0,0,0-0.1,0.1c0,0,0,0,0,0v0.2l0,0l0,0l0,0l0,0C52.3,7,52.3,7,52.4,7L52.4,7z"/>
		<rect x="52.5" y="6.8" transform="matrix(0.9869 -0.1614 0.1614 0.9869 -0.4219 8.5769)" width="0.2" height="0.1"/>
		<polygon points="52.5,7.7 52.3,7.7 52.3,7.8 52.5,7.8 		"/>
		<polygon points="52.3,8.6 52.3,8.6 52.5,8.6 52.5,8.5 52.4,8.5 52.3,8.3 52.2,8.4 52.3,8.6 		"/>
		<polygon points="52.2,8.5 52.2,8.6 52.3,8.5 		"/>
		<polygon points="52.7,5.1 52.6,5.2 52.7,5.4 52.8,5.3 		"/>
		<path d="M53.2,5.2L53.2,5.2l0-0.1l0,0l0,0c0,0-0.1-0.1-0.1-0.1l0,0l-0.1,0.1l0,0l0,0L53,5l0,0.2l0.1,0l0-0.1
			C53.1,5.1,53.2,5.1,53.2,5.2L53.2,5.2z"/>
		<path d="M52.9,5.5C53,5.5,53,5.5,52.9,5.5L53,5.4L53,5.3l0,0C52.9,5.4,52.9,5.4,52.9,5.5l-0.1,0L52.9,5.5L52.9,5.5z"/>
		<polygon points="53,1 53,1.1 53.1,1 53.1,1 53,1 		"/>
		<path d="M52.8,6.1L52.8,6.1L52.8,6.1c-0.1-0.1-0.2-0.1-0.2,0l0,0l0,0.1l0,0C52.7,6.2,52.7,6.2,52.8,6.1L52.8,6.1z"/>
		<polygon points="53.5,1.6 53.3,1.6 53.3,1.7 53.5,1.7 		"/>
		<polygon points="52.9,3.7 52.7,3.6 52.6,3.7 52.8,3.8 		"/>
		<polygon points="52.5,4.2 52.7,4.1 52.7,4 52.7,4 52.7,3.9 52.5,3.9 52.5,4 52.6,4 52.4,4.1 		"/>
		<polygon points="52.5,4.9 52.6,5.1 52.7,5 52.6,4.8 		"/>
		<path d="M52.7,4.4L52.7,4.4c-0.1-0.1-0.1-0.1-0.1-0.1l0,0l-0.1,0.1l0,0l-0.2,0l0,0.1l0.2,0l0-0.1c0,0,0,0,0,0L52.7,4.4L52.7,4.4z"
			/>
		<path d="M53.2,3.5c0,0,0.1,0,0.1,0l0.1,0l0-0.1l-0.1,0c0,0-0.1,0-0.1,0l-0.1,0L53.2,3.5L53.2,3.5z"/>
		<path d="M53.4,2.5L53.4,2.5l-0.1,0c0,0,0,0.1-0.1,0.1l0,0l-0.1,0l0,0l-0.1,0l0.1,0l0-0.1l-0.1,0l0,0l-0.1,0l0-0.1l0.1,0l0-0.2
			l-0.1,0l0,0l-0.1,0l0-0.1l-0.1,0.1l0.1,0.1l0,0.1l0.1,0l0,0.1l0,0l0,0.1l0.2,0l0,0.1l0.1,0l0,0.1l-0.1,0l0,0.1l0.1,0l0,0l0.1,0
			l0.1,0l0-0.1l0,0l0-0.1l0,0l0.2-0.1L53.4,2.5C53.4,2.6,53.4,2.6,53.4,2.5L53.4,2.5z M52.8,2.5L52.8,2.5L52.8,2.5L52.8,2.5
			L52.8,2.5z M52.8,2.3L52.8,2.3L52.8,2.3L52.8,2.3z"/>
		<rect x="53.2" y="3.2" transform="matrix(0.9603 -0.2788 0.2788 0.9603 1.2064 14.9825)" width="0.2" height="0.1"/>
		<polygon points="53.1,5.8 53.1,5.8 53.1,5.5 53,5.6 53,5.8 53,6 53.1,6 53.1,5.8 		"/>
		<polygon points="52.9,6.3 53,6.3 53.1,6.1 53,6.1 		"/>
		<path d="M55,2.5L55,2.5l0.2,0l0.1,0.1l0.1-0.2l-0.1-0.1l0,0c0,0,0.1,0,0.1,0l0,0l0,0l0,0c0,0,0,0.1,0.1,0.1l0,0l0.1-0.1l0,0
			c0,0,0,0,0,0c0,0,0.1,0,0.1,0l0.1,0l0-0.1l-0.1,0c0,0,0,0,0,0l0.1,0l-0.1-0.2l-0.1,0.1l0.1,0.2c0,0,0,0,0,0l-0.1,0l0,0l0,0l0-0.1
			l0,0c0,0-0.1,0-0.1,0l0,0l0,0.1l0,0l-0.1,0.1l-0.1-0.1L55,2.5z"/>
		<polygon points="54.2,1.5 54.3,1.3 54.2,1.3 54.2,1.3 54.2,1.2 54.1,1.2 54.1,1.4 54.1,1.4 54.1,1.5 		"/>
		<polygon points="55.3,1.8 55.2,2 55.3,2.1 55.4,1.9 		"/>
		<polygon points="55.9,1.9 56,1.8 56.1,1.8 56.1,1.8 56.1,1.8 56.1,1.7 56,1.6 55.9,1.6 56,1.8 55.9,1.8 		"/>
		<polygon points="53.2,7.1 53.2,7 53.2,7.1 53.3,7 53.2,6.8 53.2,6.9 53.2,6.8 53.1,6.9 		"/>
		<polygon points="54.1,4.4 54,4.6 54.1,4.7 54.1,4.5 54.1,4.7 54.3,4.7 54.2,4.5 54.2,4.5 54.2,4.5 		"/>
		<polygon points="53.1,6 53.1,6.2 53.1,6.3 53.2,6.3 53.2,6.3 53.2,6.3 53.3,6.2 53.3,6.1 53.3,6.1 53.3,6 		"/>
		<path d="M52.3,5.9L52.3,5.9L52.3,5.9C52.2,6,52.2,6,52.3,5.9L52.3,5.9L52.3,5.9C52.2,6,52.2,6,52.3,5.9L52.3,5.9z"/>
		<polygon points="55,2.9 55,3 55.1,3.1 55.1,3 55.2,3 55.2,2.9 55.2,2.9 55.3,2.9 55.3,2.8 55.2,2.8 55.2,2.8 55.1,2.7 55,2.9 
			55,2.9 55,2.9 		"/>
		<polygon points="57.2,1.7 57.1,1.9 57.2,1.9 57.2,1.8 57.2,1.9 57.4,1.8 57.4,1.7 57.6,1.7 57.5,1.6 57.3,1.7 57.3,1.7 57.3,1.7 
			57.3,1.7 		"/>
		<rect x="57.3" y="2.3" transform="matrix(0.9715 -0.2369 0.2369 0.9715 1.0726 13.654)" width="0.1" height="0.2"/>
		<path d="M53.8,5.4L53.8,5.4l0.1-0.1L53.8,5.4c0-0.1,0-0.1,0-0.2l0,0l0,0.1l0,0l-0.1,0l0,0.2L53.8,5.4l-0.1-0.1L53.8,5.4
			C53.7,5.4,53.7,5.4,53.8,5.4z"/>
		<polygon points="53.6,6.3 53.4,6.4 53.3,6.4 53.4,6.6 53.5,6.6 53.5,6.5 53.6,6.4 		"/>
		<polygon points="55.3,4.2 55.3,3.9 55.2,3.9 55.2,3.9 55.1,3.9 55.1,3.9 55.1,3.8 55.3,3.7 55.2,3.6 55.1,3.7 55.1,3.6 55,3.6 
			55,3.8 55,3.8 55,3.9 55.2,4 55.2,4.1 		"/>
		<path d="M56.2,3.4L56.2,3.4l-0.1-0.1L56.2,3.4c-0.1,0-0.1,0-0.1,0l0,0l0.1,0.1l-0.1,0.1l0,0l-0.1,0l0,0.1l0.2,0l0-0.1l0.1-0.1
			L56.2,3.4L56.2,3.4L56.2,3.4C56.1,3.5,56.2,3.5,56.2,3.4z"/>
		<path d="M56.5,2.6L56.5,2.6c0.1,0,0.1,0,0.1,0.1l0.1,0l0,0l0,0l0,0l0-0.1l0,0l0,0l-0.1,0C56.7,2.5,56.6,2.5,56.5,2.6l0-0.1l0,0
			l0,0l0,0L56.5,2.6L56.5,2.6L56.5,2.6L56.5,2.6L56.5,2.6z"/>
		<path d="M55.6,1.9L55.6,1.9l0-0.2l0,0l0,0l-0.1,0.1L55.6,1.9l-0.1,0l0,0.1c0,0,0,0.1,0,0.1l0,0.1l0.1,0L55.6,1.9
			C55.6,1.9,55.6,1.9,55.6,1.9L55.6,1.9L55.6,1.9L55.6,1.9z"/>
		<polygon points="52.9,1.4 53.1,1.4 53.2,1.3 52.9,1.2 		"/>
		<polygon points="52.9,1.8 52.9,1.9 53.1,2 53.1,1.9 		"/>
		<polygon points="56.5,3.3 56.6,3.2 56.5,3.1 56.6,3.1 56.6,3 56.4,3 56.4,3.1 56.4,3.1 56.4,3.1 56.3,3.2 56.3,3.3 56.5,3.2 		"/>
		<polygon points="53.3,2.2 53.4,2.1 53.4,1.9 53.3,1.9 53.2,1.9 53.2,2 53.3,2.1 		"/>
		<path d="M52.7,1l-0.1,0.1l-0.2,0l0,0l0,0l-0.1,0.1l0,0c0,0,0.1,0,0.1,0.1l0,0l0,0l-0.1,0.2l0.1,0l0.1-0.2l0,0l0.1-0.1l0,0
			c0,0,0,0,0,0l0.1,0l0,0l0,0L52.7,1l0.1,0.1l0,0.1l0.1,0l0-0.1l0.1,0L53,1H52.7z"/>
		<polygon points="52.3,5.2 52.2,5.2 52.2,5.4 52.2,5.5 52.3,5.4 52.2,5.3 52.3,5.3 		"/>
		<path d="M52.9,5l0-0.2l0-0.1l-0.1,0l0,0l0,0c0,0,0.1,0,0.1,0l0.1,0l0-0.1l0.2-0.1l-0.1-0.1L53,4.5l0,0.1l0,0c0,0-0.1,0-0.1,0
			l-0.1,0l0,0.1l0,0l0,0l0,0l0,0l-0.1,0.1l0.1,0.1l0.1-0.1l0,0l0,0.2L52.9,5z"/>
		<polygon points="52.3,3 52.2,3 52.2,3.2 52.2,3.2 52.2,3.1 52.3,3.1 		"/>
		<polygon points="52.6,2.9 52.6,2.8 52.4,2.8 52.5,2.7 52.4,2.6 52.3,2.8 52.3,2.9 52.4,2.8 52.4,2.9 		"/>
		<polygon points="53.8,1.3 53.9,1.4 54,1.3 53.8,1.2 		"/>
		<polygon points="53.6,1.7 53.6,1.9 53.7,1.9 53.7,1.7 		"/>
		<polygon points="53.7,2.3 53.9,2.4 53.9,2.3 53.7,2.2 		"/>
		<path d="M54,1.8L54,1.8c-0.1,0-0.1,0-0.2,0l-0.1,0l0,0.1l0,0l0,0c0,0,0,0,0,0l-0.1,0l0,0.1l0.1,0l0,0l0,0l0,0l0,0l0,0l0,0L54,2
			L54,2L54,2L54,1.8z"/>
		<polygon points="52.9,4.1 52.9,4.1 52.9,4 52.8,4 52.7,4.1 52.9,4.1 52.8,4.1 52.8,4.1 52.7,4.2 52.8,4.3 52.9,4.3 52.8,4.2 
			53,4.2 		"/>
		<polygon points="53.2,1.4 53,1.4 53,1.5 53.1,1.5 53,1.6 53,1.7 53.1,1.6 53.1,1.8 53.2,1.7 53.2,1.6 53.2,1.6 53.2,1.5 53.2,1.5 
					"/>
		<path d="M53,3.3L53,3.3l0.1,0L53,3.2l0,0l0-0.1l0,0c0,0,0,0-0.1,0l0-0.1l-0.1,0l0,0l-0.1,0l0-0.1l-0.2,0l0,0l0,0c0,0-0.1,0-0.1,0
			l0,0l0,0.1l0,0c0,0,0,0,0,0c0,0,0,0,0,0.1l0,0.1l0,0l0,0c0,0,0,0,0.1,0.1l0,0l0,0c0,0,0,0,0,0l-0.1,0l0,0l0,0l0,0l0,0l0,0l0-0.1
			l-0.1,0l0,0.1l0,0l-0.1-0.2v0.2l0,0l0,0l0.1,0l0,0l0.1,0l0,0l0.1,0.1l0,0l0.2,0l0-0.1l-0.2,0l0.1,0l0.2,0l0,0l0.1,0l0-0.1
			c0,0,0-0.1,0-0.1l0-0.1l-0.1,0l0,0.1c0,0,0,0,0,0c0,0,0-0.1,0-0.1l0,0l0,0c0,0,0-0.1-0.1-0.1l0,0l0.1,0l0,0.1l0.1,0l0,0.1l0.1,0
			l0,0l0,0l0,0l0,0.2l0.1,0l0,0c0,0,0,0,0,0l0,0l0,0.1l0,0c0,0,0.1,0,0.1,0l0,0l0-0.1l0,0L53,3.3L53,3.3L53,3.3L53,3.3z M52.6,3.2
			L52.6,3.2L52.6,3.2L52.6,3.2z"/>
		<path d="M53,2.5L53,2.5l0.1,0l0-0.1c0,0,0-0.1,0-0.1l0-0.1l-0.1,0L53,2.5C53,2.5,53,2.5,53,2.5z"/>
		<polygon points="52.2,4.8 52.2,4.8 52.2,4.9 52.2,4.9 52.2,4.9 52.2,4.9 52.2,4.9 52.2,4.8 		"/>
		<polygon points="53.8,5.1 53.7,5 53.5,5.1 53.6,5.2 		"/>
		<polygon points="54.2,6.2 54.1,6.2 54.2,6.2 54.2,5.9 54.1,5.9 54.1,6.2 54.1,6.2 54,6.3 54.1,6.4 		"/>
		<path d="M53.4,5.6L53.4,5.6L53.4,5.6l-0.1-0.1l0,0l0,0l-0.1,0.1l0,0l0,0.1l0,0l0,0c0,0,0,0.1,0,0.1l0,0.1l0,0L53.1,6L53.2,6
			l0.1-0.2l-0.1-0.1c0,0,0-0.1,0-0.1l0,0L53.4,5.6L53.4,5.6l-0.1,0.2l0.1,0L53.4,5.6L53.4,5.6L53.4,5.6z"/>
		<polygon points="54.2,5.2 54,5.3 54,5.4 54.2,5.3 		"/>
		<polygon points="53.5,4.6 53.4,4.8 53.4,4.8 53.6,4.7 		"/>
		<polygon points="54.3,1.7 54.2,1.9 54.1,1.8 54,1.9 54.2,2 54.3,2 54.3,2 54.4,1.8 		"/>
		<polygon points="54.3,2.1 54.3,2 54.1,2.1 54.1,2.2 54.1,2.2 54.1,2.3 54.2,2.3 54.3,2.1 		"/>
		<path d="M54.3,5.1L54.3,5.1l0-0.1l-0.1,0c0,0-0.1,0-0.1,0l-0.1,0l0,0.1l0.1,0C54.3,5.2,54.3,5.2,54.3,5.1z"/>
		<polygon points="54.5,4.2 54.3,4.2 54.3,4.3 54.3,4.3 54.5,4.4 		"/>
		<polygon points="53.3,4.5 53.1,4.6 53.2,4.7 53.4,4.6 		"/>
		<polygon points="52.8,7 52.6,7.1 52.7,7.2 52.9,7.1 		"/>
		<path d="M52.7,8.8l-0.2,0v0l-0.2-0.1l0,0.1l0.2,0.1l0-0.1l0,0.1l0,0c0,0-0.1,0-0.1,0l-0.1,0l0,0.1l0.1,0c0,0,0.1,0,0.1,0l0.1,0
			l0-0.1l0.2,0L52.7,8.8z"/>
		<path d="M52.6,9.1L52.6,9.1l0-0.1l-0.1,0c0,0-0.1,0-0.1,0l-0.1,0l0,0.1l0.1,0C52.5,9.1,52.6,9.1,52.6,9.1z"/>
		<polygon points="52.9,7.5 52.8,7.5 52.7,7.7 52.8,7.7 		"/>
		<polygon points="52.8,6.5 52.7,6.7 52.9,6.7 52.9,6.5 		"/>
		<polygon points="53.4,7.1 53.2,7.1 53.2,7.2 53.4,7.2 		"/>
		<path d="M53.2,7.4c0,0,0.1,0,0.1-0.1l0,0l-0.1-0.1l0,0C53.2,7.3,53.2,7.3,53.2,7.4L53.2,7.4L53.2,7.4L53.2,7.4z"/>
		<polygon points="55.7,1 55.7,1 55.7,1 		"/>
		<path d="M55.1,5.2C55.1,5.2,55.1,5.2,55.1,5.2c0-0.1,0-0.1,0-0.1l0-0.1l-0.1,0l0,0.1c0,0,0,0,0,0.1l0,0.1L55.1,5.2L55.1,5.2z"/>
		<polygon points="55.6,5.2 55.5,5.4 55.5,5.4 55.7,5.3 		"/>
		<path d="M55.5,4.6c0,0-0.1,0-0.1,0l-0.1,0l0,0.1l0.1,0c0,0,0.1,0,0.1,0L55.5,4.6L55.5,4.6L55.5,4.6z"/>
		<polygon points="55.4,1.3 55.5,1.2 55.4,1 55.3,1.1 		"/>
		<path d="M55.5,5.1C55.5,5.1,55.5,5,55.5,5.1L55.6,5l-0.1-0.1l0,0C55.4,5,55.4,5,55.5,5.1l-0.1,0L55.5,5.1L55.5,5.1z"/>
		<polygon points="55.7,4.2 55.6,4.2 55.6,4.2 55.5,4.1 55.4,4.3 55.5,4.4 55.5,4.3 55.7,4.3 		"/>
		<polygon points="56.2,4.8 56.2,4.8 56.1,4.8 56.2,4.9 56.1,5 56.2,5 56.2,5 56.2,5 56.3,5 56.3,4.9 56.3,4.9 56.2,4.8 		"/>
		<polygon points="56.2,3.8 56.2,3.9 56.3,4.1 56.4,4 		"/>
		<polygon points="55.9,4.8 55.9,4.8 55.9,4.7 55.9,4.7 55.9,4.6 55.7,4.6 55.7,4.7 55.7,4.7 		"/>
		<polygon points="56.2,5.7 56,5.7 55.9,5.8 56.1,5.8 		"/>
		<polygon points="55.3,6 55.3,5.8 55.2,5.8 55.2,6 		"/>
		<path d="M55.4,1.7L55.4,1.7L55.4,1.7l-0.1-0.2L55.4,1.7l0.1-0.2l-0.1-0.1l0.1,0l0,0l0.1,0l0,0l0,0l0.1,0l0,0l-0.1,0.1l0.2,0.1l0,0
			l-0.1,0.1l0.1,0.1l0.1-0.2l-0.1-0.1l0,0l-0.1-0.1l0.1,0l0.1-0.1l-0.1-0.1l0,0l0,0l0,0l0,0l0,0l-0.1-0.1l0,0l0,0l-0.1,0.1l0.1,0.1
			c0,0,0,0,0,0l0,0l-0.1,0l0,0l-0.2,0l0,0.1l-0.1,0l0,0l-0.1,0.1L55.4,1.7l-0.2,0l0.1,0.1L55.4,1.7z"/>
		<rect x="55" y="2.1" transform="matrix(0.8558 -0.5173 0.5173 0.8558 6.8035 28.8068)" width="0.2" height="0.1"/>
		<path d="M55,1.3L55,1.3c0,0,0,0.1,0,0.1l0,0.1l0.1,0l0-0.1c0,0,0-0.1,0-0.1L55,1.3L55,1.3L55,1.3l0-0.2l-0.1,0.2L55,1.3L55,1.3z"
			/>
		<path d="M55.2,5.5C55.3,5.5,55.3,5.5,55.2,5.5l0-0.2l-0.1,0l0,0.1c0,0,0,0,0,0.1l0,0.1L55.2,5.5L55.2,5.5z"/>
		<polygon points="55.2,4 55.1,4 55,4.2 55.1,4.2 		"/>
		<polygon points="55.3,4.7 55.1,4.8 55.1,4.9 55.3,4.8 		"/>
		<path d="M52.4,9.8l0-0.1l-0.1,0c0,0-0.1,0-0.1,0l-0.1,0l0,0.1l0.1,0C52.3,9.7,52.3,9.7,52.4,9.8L52.4,9.8z"/>
		<path d="M55,4.5l0.1,0l0-0.1c0,0,0-0.1,0-0.1l0-0.1l-0.1,0l0,0.1C55,4.4,55,4.4,55,4.5L55,4.5z"/>
		<path d="M53,7.3C53,7.3,53,7.2,53,7.3l0.1-0.1L53,7.1l0,0C53,7.2,52.9,7.2,53,7.3l-0.1,0L53,7.3L53,7.3z"/>
		<rect x="54.1" y="2.6" width="0.1" height="0.2"/>
		<path d="M54.2,3.3L54.2,3.3l-0.1,0c0,0,0,0.1-0.1,0.1l0,0L54,3.4l0,0C54.1,3.4,54.1,3.3,54.2,3.3L54.2,3.3z"/>
		<polygon points="54,2.4 53.9,2.4 53.9,2.4 53.9,2.4 53.9,2.4 53.9,2.4 53.9,2.4 53.9,2.5 53.8,2.5 53.9,2.7 54,2.7 54,2.6 54,2.6 
			54,2.6 54,2.6 54,2.6 54,2.6 54.1,2.5 54,2.5 		"/>
		<polygon points="54.1,4.8 53.9,4.7 53.9,4.8 54.1,4.9 		"/>
		<polygon points="56.5,1 56.5,1 56.3,1 56.3,1.1 		"/>
		<rect x="53.9" y="1" transform="matrix(4.199920e-02 -0.9991 0.9991 4.199920e-02 50.6321 54.9814)" width="0.2" height="0.1"/>
		<path d="M55.9,2.9c0,0,0-0.1,0-0.1l0-0.1l-0.1,0l0,0.1c0,0,0,0.1,0,0.1l0,0l-0.1-0.1l0,0.1l0.2,0.1L55.9,2.9L55.9,2.9L55.9,2.9
			L55.9,2.9z"/>
		<polygon points="56.4,1.1 56.6,1.2 56.6,1.1 56.5,1 		"/>
		<path d="M53.9,5.1L53.9,5.1l0.1,0l0-0.1c0,0,0-0.1,0-0.1l0-0.1l-0.1,0l0,0.1C53.9,5,53.9,5.1,53.9,5.1z"/>
		<path d="M52.3,9.9l0-0.1l-0.1,0c0,0,0,0,0,0L52.3,9.9C52.2,9.8,52.2,9.8,52.3,9.9L52.3,9.9z"/>
		<polygon points="56.2,2 56,2.1 56,2.2 56.2,2.2 		"/>
		<polygon points="53.5,3.8 53.3,4 53.4,4.1 53.5,3.9 		"/>
		<rect x="53.4" y="1.3" transform="matrix(0.3287 -0.9444 0.9444 0.3287 34.5304 51.4705)" width="0.1" height="0.2"/>
		<path d="M53.5,4.3L53.5,4.3C53.4,4.3,53.4,4.3,53.5,4.3L53.5,4.3l-0.1-0.1l0,0c0,0,0,0,0,0l0,0l0,0c0,0,0,0,0,0l0,0l0,0l0,0l0,0
			l0.1,0l0,0l0.1,0L53.5,4.3z"/>
		<path d="M53.9,3.8L53.9,3.8l0.1,0L53.9,3.8C54,3.7,54,3.7,53.9,3.7l0,0l-0.1,0L53.9,3.8C53.9,3.8,53.9,3.8,53.9,3.8z"/>
		<polygon points="53.7,2.5 53.6,2.5 53.6,2.7 53.7,2.7 		"/>
		<polygon points="53.9,2.8 53.8,2.8 53.7,3 53.9,3 		"/>
		<polygon points="53.8,3.3 53.7,3.2 53.6,3.4 53.7,3.5 		"/>
		<path d="M53.7,1.2L53.7,1.2l0-0.1c0,0-0.1-0.1-0.1-0.1l0,0h0l-0.1,0.1l0,0C53.6,1.1,53.6,1.2,53.7,1.2L53.7,1.2z"/>
		<polygon points="55.9,2.4 55.9,2.5 56.1,2.5 56.1,2.4 56.1,2.4 		"/>
		<polygon points="56.9,2.9 56.7,2.9 56.6,3 56.8,3 		"/>
		<path d="M57,2.1L57,2.1L57,2L57,2.1C56.9,2,56.9,2,56.8,2l0,0l0,0.1L57,2.1C56.9,2.1,57,2.1,57,2.1z"/>
		<polygon points="56.4,1.7 56.3,1.7 56.3,1.9 56.4,1.9 		"/>
		<polygon points="56.9,1.3 56.9,1.3 57.1,1.5 57.1,1.4 		"/>
		<path d="M56.9,1L56.9,1L56.9,1L56.9,1l0,0.1l0.1,0c0,0,0,0,0,0l0,0l0.1,0l0,0c0,0,0-0.1,0-0.1l0,0H56.9z"/>
		<polygon points="57.1,3.4 57,3.2 56.9,3.2 57,3.4 		"/>
		<polygon points="56.4,2.7 56.2,2.6 56.2,2.6 56.3,2.6 56.3,2.5 56.1,2.5 56.1,2.6 56.1,2.6 56.1,2.8 56.2,2.8 56.2,2.7 56.3,2.8 
					"/>
		<path d="M56.6,1.7L56.6,1.7l0.1,0L56.6,1.7c0.1-0.1,0-0.1,0-0.2l0,0l-0.1,0.1l0,0l0-0.1l0,0l0-0.1l-0.2-0.1l0,0.1l0,0l0,0.1l0.2,0
			l-0.1,0.1L56.6,1.7L56.6,1.7z"/>
		<polygon points="55.5,3.4 55.5,3.4 55.6,3.4 55.6,3.2 55.5,3.2 55.5,3.3 55.5,3.3 55.3,3.5 55.4,3.5 		"/>
		<polygon points="55.7,2.5 55.5,2.6 55.5,2.7 55.7,2.6 		"/>
		<polygon points="55.5,3.1 55.4,3.1 55.3,3.3 55.4,3.3 		"/>
		<polygon points="55.8,2.7 55.9,2.6 55.9,2.5 55.7,2.6 		"/>
		<polygon points="56.1,3.9 56,3.9 55.9,4 56,4.1 		"/>
		<polygon points="55.7,3.5 55.7,3.6 55.8,3.6 55.8,3.4 55.8,3.4 55.7,3.3 55.6,3.3 55.7,3.5 		"/>
		<path d="M56.1,4.3C56.1,4.3,56.2,4.3,56.1,4.3l0.1-0.1l-0.1-0.1l0,0C56.1,4.2,56.1,4.2,56.1,4.3l-0.1,0L56.1,4.3L56.1,4.3z"/>
		<polygon points="55.9,4.1 55.7,4 55.6,4.1 55.9,4.2 		"/>
		<path d="M52.9,1.6L52.9,1.6L52.9,1.6L52.9,1.6l0-0.1l-0.1,0l-0.1-0.1l0,0.1l0,0l0,0.1c0,0,0,0.1,0,0.1l0,0.1l0.1,0l0,0
			c0,0,0-0.1,0-0.1L52.9,1.6L52.9,1.6L52.9,1.6L52.9,1.6z"/>
		<rect x="59.5" y="3.9" transform="matrix(8.137011e-02 -0.9967 0.9967 8.137011e-02 50.7974 63.0832)" width="0.2" height="0.1"/>
		<path d="M53.9,11.5L53.9,11.5l0-0.1l-0.1,0c0,0-0.1,0-0.1,0l0,0l0-0.1l-0.1,0l0.1,0.2L53.9,11.5l-0.1,0l0,0
			C53.8,11.5,53.8,11.5,53.9,11.5z"/>
		<polygon points="62.8,1.5 62.9,1.5 63,1.5 63,1.5 62.8,1.4 		"/>
		<polygon points="59.7,3.2 59.5,3.3 59.6,3.4 59.8,3.3 		"/>
		<polygon points="53.7,14.5 53.5,14.7 53.6,14.8 53.8,14.6 		"/>
		<polygon points="53.5,15 53.7,15.1 53.8,15 53.6,14.9 		"/>
		<polygon points="62.8,3.1 62.8,3.2 62.9,3.3 63,3.2 		"/>
		<polygon points="62.8,2.4 62.9,2.6 63,2.5 62.9,2.4 		"/>
		<polygon points="63.2,4.5 63,4.5 63,4.6 63.2,4.6 		"/>
		<polygon points="63.1,5 63,4.9 62.9,4.9 62.8,4.8 62.7,4.9 62.9,5 62.9,5 63,5.1 		"/>
		<polygon points="67.3,3.1 67.1,3 67,3.1 67.2,3.2 		"/>
		<polygon points="67.4,1.3 67.2,1.1 67.1,1.2 67.3,1.3 		"/>
		<path d="M67.2,4.1c0,0,0-0.1,0-0.1l0-0.1l-0.1,0l0,0.1c0,0,0,0.1,0,0.1l0,0.1L67.2,4.1L67.2,4.1z"/>
		<polygon points="62.8,6.7 62.8,6.9 62.9,6.9 62.9,6.7 		"/>
		<polygon points="67.2,9.9 67,9.8 67,9.9 67.2,10 		"/>
		<rect x="62.9" y="7.7" transform="matrix(0.9806 -0.1959 0.1959 0.9806 -0.3063 12.4766)" width="0.1" height="0.2"/>
		<polygon points="63.2,5.1 63.1,5.2 63.2,5.3 63.3,5.3 		"/>
		<polygon points="63.2,6.1 63.3,6.1 63.2,5.9 63.1,5.9 		"/>
		<polygon points="62.5,3.2 62.6,3.4 62.7,3.3 62.6,3.1 		"/>
		<polygon points="61.5,1.5 61.5,1.4 61.5,1.3 61.4,1.3 61.4,1.4 61.4,1.5 		"/>
		<polygon points="61.6,1.3 61.7,1.3 61.8,1.1 61.7,1.1 		"/>
		<polygon points="61.4,2.3 61.6,2.3 61.6,2.2 61.4,2.2 		"/>
		<polygon points="61.5,4.7 61.4,4.7 61.4,4.8 61.4,4.8 61.4,4.9 61.4,4.9 61.5,4.9 61.5,5 61.5,4.9 61.6,4.9 61.6,4.9 61.6,4.9 
			61.5,4.9 		"/>
		<polygon points="61.5,1.5 61.7,1.7 61.7,1.6 61.6,1.5 		"/>
		<rect x="61.5" y="4.4" transform="matrix(0.3795 -0.9252 0.9252 0.3795 34.0309 59.6985)" width="0.1" height="0.2"/>
		<polygon points="62.6,1.5 62.8,1.7 62.9,1.6 62.7,1.4 		"/>
		<polygon points="62,1.3 62,1.2 61.8,1.3 61.8,1.4 		"/>
		<polygon points="61.4,9.8 61.6,9.9 61.6,9.8 61.5,9.7 		"/>
		<polygon points="62.4,2.9 62.3,2.9 62.3,3.1 62.4,3.1 		"/>
		<path d="M62.5,4.3l-0.2,0l0,0.1l0,0l0,0c0,0,0,0.1,0,0.1l0,0.1l0.1,0l0-0.1c0,0,0-0.1,0-0.1L62.5,4.3l0,0.1L62.5,4.3z"/>
		<polygon points="67.1,5.2 67.1,5 67,5 67,5.2 		"/>
		<polygon points="62.5,2.2 62.4,2.2 62.5,2.4 62.6,2.4 62.5,2.2 62.6,2.2 62.7,2 62.6,2 		"/>
		<path d="M62.1,10.6L62.1,10.6c0,0.1,0.1,0.1,0.1,0.1l0,0l0.1,0l0,0c0,0,0-0.1,0-0.1L62.1,10.6L62.1,10.6z"/>
		<path d="M62.5,2.6l-0.1,0l0,0l-0.1,0l0,0c0,0,0,0.1,0,0.1l0,0l0.1,0l0,0c0,0,0-0.1,0-0.1L62.5,2.6l-0.1,0.2l0.1,0L62.5,2.6z"/>
		<path d="M61.7,6.1c0,0-0.1,0-0.1,0l-0.1,0l0,0.1l0.1,0c0,0,0.1,0,0.1,0l0,0l0,0.2l0.1,0l0-0.2L61.7,6.1L61.7,6.1L61.7,6.1z"/>
		<polygon points="61.8,7.5 61.8,7.4 61.6,7.6 61.7,7.6 		"/>
		<path d="M67.8,1.4L67.8,1.4l-0.1,0.1l0.1,0c0,0,0.1,0,0.1,0l0.1,0l0-0.1l-0.1,0C67.9,1.4,67.8,1.4,67.8,1.4z"/>
		<path d="M65.6,11.6C65.5,11.6,65.5,11.6,65.6,11.6l-0.1,0.1l0.1,0.1l0,0C65.6,11.7,65.6,11.6,65.6,11.6l0.1,0L65.6,11.6L65.6,11.6
			z"/>
		<path d="M61.7,3.5l0.1,0l0-0.1c0,0,0-0.1,0-0.1l0-0.1l-0.1,0l0,0l-0.1,0.1L61.7,3.5L61.7,3.5z"/>
		<path d="M65.8,6.8L65.8,6.8l-0.1-0.1c0,0-0.1,0-0.1,0.1l0,0L65.6,7l0,0C65.7,6.9,65.7,6.9,65.8,6.8L65.8,6.8z"/>
		
			<rect x="67.8" y="2.7" transform="matrix(0.9993 -3.765536e-02 3.765536e-02 0.9993 -5.626430e-02 2.5563)" width="0.1" height="0.2"/>
		<path d="M66.3,10.8l0.1,0l0-0.1c0,0,0,0,0-0.1c0,0,0,0,0-0.1l0-0.1l-0.1,0l0,0.1c0,0,0,0,0,0C66.3,10.7,66.3,10.8,66.3,10.8
			L66.3,10.8z"/>
		<path d="M66.4,2.6L66.4,2.6c-0.1,0-0.1,0.1-0.1,0.1l0,0l0.1,0.1l0,0c0,0,0.1,0,0.1-0.1L66.4,2.6L66.4,2.6z"/>
		<polygon points="66.3,7.8 66.4,7.6 66.3,7.5 66.2,7.7 		"/>
		<polygon points="67.9,3.1 67.8,2.9 67.7,3 67.8,3.1 		"/>
		<path d="M66.3,5.1l0,0.1h0.1c0,0,0.1,0,0.1,0l0.1,0l0-0.1l-0.1,0C66.4,5.1,66.4,5.1,66.3,5.1L66.3,5.1z"/>
		<polygon points="67.8,6.1 67.6,6 67.5,6.1 67.7,6.2 		"/>
		<polygon points="68.2,10 68.4,10 68.4,9.9 68.2,9.9 		"/>
		<polygon points="68.1,3 68.2,3 68.2,2.8 68.1,2.8 		"/>
		<path d="M67.9,4.5C67.9,4.5,67.9,4.6,67.9,4.5l-0.1,0.1l0.1,0.1l0,0C68,4.6,68,4.6,67.9,4.5l0.1,0L67.9,4.5L67.9,4.5z"/>
		<polygon points="68.1,1.1 68.3,1.2 68.3,1.1 68.1,1 		"/>
		<polygon points="67.6,1.7 67.7,1.7 67.6,1.9 67.7,2 67.8,1.8 67.7,1.8 67.8,1.6 67.7,1.5 		"/>
		<path d="M67.5,3c0,0,0,0.1,0,0.1l0,0.1l0.1,0l0-0.1c0,0,0-0.1,0-0.1l0-0.1L67.5,3L67.5,3z"/>
		<polygon points="67.9,1.2 67.7,1.2 67.7,1.3 67.9,1.3 		"/>
		<polygon points="66.1,2.6 66.2,2.6 66.2,2.4 66.1,2.4 		"/>
		<polygon points="66.1,11.4 65.9,11.2 65.9,11.3 66,11.5 		"/>
		<polygon points="66.6,2.8 66.4,2.9 66.5,3 66.7,2.8 		"/>
		<polygon points="66.5,8.3 66.4,8.3 66.4,8.5 66.5,8.5 		"/>
		<polygon points="66.4,11.6 66.3,11.4 66.2,11.4 66.3,11.6 		"/>
		<polygon points="66.3,11.3 66.2,11.1 66.1,11.2 66.2,11.3 		"/>
		<polygon points="66.7,2.4 66.8,2.5 66.9,2.4 66.7,2.2 66.6,2.3 66.7,2.3 66.6,2.3 66.6,2.6 66.7,2.6 		"/>
		<polygon points="67.1,4.1 66.9,3.9 66.8,4 67,4.2 		"/>
		<polygon points="66.9,4.8 66.8,4.8 66.8,5 66.9,5 		"/>
		<path d="M67,2.6l0.1,0l0-0.1c0,0,0-0.1,0-0.1l0-0.1l-0.1,0l0,0.1C67,2.5,67,2.6,67,2.6L67,2.6z"/>
		<path d="M65.9,1.2C65.9,1.2,65.9,1.2,65.9,1.2l-0.1,0.1L66,1.4l0,0C66,1.3,66,1.2,65.9,1.2l0.1,0L65.9,1.2L65.9,1.2z"/>
		<rect x="66" y="3" transform="matrix(0.4499 -0.8931 0.8931 0.4499 33.6015 60.7017)" width="0.2" height="0.1"/>
		<polygon points="65.9,6.5 65.7,6.4 65.7,6.5 65.9,6.6 		"/>
		<rect x="65.7" y="4.8" transform="matrix(0.9932 -0.1161 0.1161 0.9932 -0.115 7.6787)" width="0.2" height="0.1"/>
		<polygon points="66,3.9 65.9,3.9 65.9,4.1 66,4.1 		"/>
		<polygon points="66.1,8 66,8 65.9,8.2 66,8.2 		"/>
		<polygon points="65.8,1.7 65.9,1.8 65.9,1.5 65.8,1.5 		"/>
		<path d="M65.6,4.6L65.6,4.6l0,0.1l0.1,0c0,0,0.1,0,0.1,0l0.1,0l0-0.1l-0.1,0C65.7,4.6,65.7,4.6,65.6,4.6z"/>
		<polygon points="65.8,3 66,3.1 66,3 65.9,3 66,2.9 65.9,2.8 65.8,2.8 65.9,2.9 65.8,2.9 		"/>
		<polygon points="62.3,1.9 62.4,2 62.5,1.8 62.4,1.7 		"/>
		<path d="M53.7,6.6l0.1-0.1l0,0.1l0.2,0l0-0.1l-0.1,0l0,0c0,0,0,0-0.1-0.1l0,0l-0.1-0.1l0-0.1l0,0c0,0-0.1,0-0.1-0.1l0,0l-0.1,0.1
			l0,0l-0.2,0.1l0.1,0.1l0.2-0.1l0,0.1l-0.1,0l0,0.1l0.1,0l0,0l-0.1,0.1l0,0l-0.2,0.1l0,0l-0.1,0l0,0.1l0.2,0l0-0.1L53.7,6.6
			L53.7,6.6z M53.8,6.2L53.8,6.2L53.8,6.2C53.7,6.2,53.7,6.2,53.8,6.2z"/>
		<path d="M54,6.8L54,6.8l-0.1-0.1c0,0-0.1,0-0.1,0l0,0l0,0.1l0,0C53.9,6.9,54,6.8,54,6.8L54,6.8z"/>
		<path d="M55.7,6.8L55.5,7L55.6,7c0,0,0,0,0,0l0,0l0.1,0.1l0,0c0,0,0-0.1,0.1-0.1l0,0l0,0L55.7,6.8L55.7,6.8z"/>
		<path d="M53.7,7.9L53.7,7.9l0,0.1L53.7,7.9c0.1,0.1,0.1,0.1,0.2,0l0,0l-0.1-0.1L53.7,7.9C53.8,7.9,53.8,7.9,53.7,7.9z"/>
		<rect x="53.8" y="7.6" transform="matrix(0.1596 -0.9872 0.9872 0.1596 37.6339 59.6103)" width="0.1" height="0.2"/>
		<polygon points="62,2.2 61.9,2 61.8,2.1 61.9,2.3 		"/>
		<polygon points="58.3,1.4 58.2,1.3 58,1.5 58.1,1.5 		"/>
		<path d="M58.5,1.7C58.5,1.7,58.5,1.7,58.5,1.7L58.5,1.7L58.5,1.7l-0.1-0.1l-0.1,0.1L58.5,1.7C58.4,1.8,58.4,1.8,58.5,1.7l-0.1,0.1
			l0.1,0L58.5,1.7C58.5,1.8,58.5,1.8,58.5,1.7L58.5,1.7L58.5,1.7z"/>
		<path d="M58.4,2.2L58.4,2.2L58.4,2.2L58.4,2.2c-0.1,0-0.1,0-0.1,0.1l0,0l-0.1,0.1l0,0.1l-0.1,0.1l0.1,0.1l0.1-0.2l0,0l0,0l0,0l0,0
			l0,0L58.4,2.2C58.3,2.2,58.4,2.2,58.4,2.2z"/>
		<polygon points="57.9,1.2 57.9,1.3 57.9,1.3 58.1,1.3 58.1,1.2 		"/>
		<polygon points="54.5,8.8 54.4,8.6 54.3,8.7 54.4,8.8 		"/>
		<rect x="54.2" y="7.8" transform="matrix(0.9997 -2.260351e-02 2.260351e-02 0.9997 -0.1657 1.2288)" width="0.1" height="0.2"/>
		<rect x="54.1" y="9.3" transform="matrix(0.9977 -6.707567e-02 6.707567e-02 0.9977 -0.5074 3.6567)" width="0.1" height="0.2"/>
		<path d="M55,2.1L54.8,2l0,0L55,2l0-0.1l-0.2,0l0,0.1l-0.1-0.1l-0.1,0.1L54.7,2l0.1,0l0,0.1l0.1,0.1l-0.2,0l0,0L54.7,2l-0.2,0.1
			l0.1,0.1l0,0l0,0l0,0l0,0l-0.1,0l0,0.1l-0.1,0l-0.1,0.2l0.1,0l0-0.1l0,0l0.1,0l0,0l0,0l0,0l0,0l0.1-0.1l0,0l0.1,0l0,0l0,0l0,0
			l0-0.1l0.2,0L55,2.1L55,2.1L55,2.1z M54.6,2.2L54.6,2.2L54.6,2.2L54.6,2.2L54.6,2.2z"/>
		<polygon points="54.6,9.3 54.5,9.2 54.4,9.3 54.5,9.4 		"/>
		<rect x="54.3" y="7.1" transform="matrix(0.1671 -0.9859 0.9859 0.1671 38.1009 59.5924)" width="0.1" height="0.2"/>
		<polygon points="54.6,7.6 54.6,7.6 54.7,7.4 54.6,7.3 54.5,7.5 54.4,7.4 54.4,7.5 54.6,7.6 		"/>
		<path d="M54.5,8.1C54.5,8.1,54.5,8,54.5,8.1L54.5,8L54.4,8l0,0C54.4,8.1,54.4,8.1,54.5,8.1l-0.1,0.1L54.5,8.1L54.5,8.1z"/>
		<polygon points="52.3,13.1 52.3,13.1 52.3,13 52.2,13 52.2,13.2 52.3,13.2 52.3,13.2 52.3,13.2 		"/>
		<polygon points="55.6,6.1 55.5,6.1 55.5,6.2 55.4,6.1 55.3,6.3 55.4,6.4 55.5,6.3 55.5,6.3 55.6,6.3 		"/>
		<polygon points="54.4,1 54.5,1.1 54.5,1.1 54.5,1.1 54.5,1.2 54.5,1.3 54.5,1.3 54.5,1.4 54.6,1.4 54.6,1.5 54.6,1.5 54.4,1.6 
			54.4,1.5 54.2,1.6 54.2,1.7 54.4,1.6 54.5,1.7 54.6,1.6 54.6,1.6 54.6,1.7 54.5,1.7 54.5,2 54.6,1.9 54.6,1.8 54.7,1.8 54.7,1.6 
			54.7,1.6 54.7,1.4 54.7,1.4 54.7,1.4 54.7,1.3 54.6,1.3 54.7,1.3 54.6,1.2 54.7,1.1 54.6,1 		"/>
		<path d="M57.2,3.5L57.2,3.5l0.2-0.1l-0.1-0.1L57.2,3.5l0-0.1l-0.1,0l0,0.2l0,0l-0.2,0.1l0,0l0,0l0,0.2l0.1,0c0,0,0,0.1,0,0.1
			l0,0.1L57,4l0-0.1c0,0,0-0.1,0-0.1l0-0.1l0,0l0-0.1L57.2,3.5L57.2,3.5L57.2,3.5L57.2,3.5z"/>
		<polygon points="55.3,8.6 55.5,8.6 55.5,8.5 55.3,8.5 		"/>
		<polygon points="54.7,3.4 54.8,3.3 54.7,3.2 54.6,3.4 54.6,3.4 54.5,3.6 54.7,3.6 54.7,3.4 		"/>
		<polygon points="54.6,2.5 54.5,2.7 54.6,2.7 54.5,2.7 54.6,2.8 54.7,2.7 54.8,2.7 54.9,2.5 54.8,2.5 54.7,2.6 54.7,2.6 54.7,2.6 
			54.7,2.5 		"/>
		<polygon points="54.8,5 54.7,4.8 54.6,4.9 54.8,5.1 		"/>
		<polygon points="55.5,8.1 55.3,8.3 55.4,8.3 55.5,8.2 		"/>
		<polygon points="54.4,3.1 54.4,3.2 54.3,3.3 54.2,3.1 54.1,3.2 54.2,3.3 54.2,3.3 54.3,3.4 54.1,3.4 54.1,3.5 54.2,3.5 54.1,3.6 
			54.2,3.7 54.2,3.7 54.2,3.9 54.3,3.9 54.3,3.9 54.5,4 54.5,3.9 54.3,3.8 54.3,3.8 54.3,3.7 54.2,3.7 54.3,3.6 54.2,3.5 54.3,3.5 
			54.4,3.4 54.3,3.4 54.4,3.3 54.4,3.4 54.6,3.3 54.6,3.2 54.5,3.3 54.5,3.1 		"/>
		<polygon points="56.1,7.7 56.1,7.6 56,7.5 55.9,7.6 		"/>
		<polygon points="56.5,4.6 56.7,4.5 56.6,4.4 56.4,4.5 		"/>
		<polygon points="56.5,3.8 56.4,3.9 56.5,4.1 56.6,4 		"/>
		<polygon points="56,5.3 56.1,5.2 56,5.1 56,5 56,5 56.1,4.9 56.1,4.8 56.2,4.6 56.1,4.6 56,4.8 56,4.8 55.9,5 55.9,5 55.8,4.9 
			55.8,5 55.9,5.1 55.9,5.1 		"/>
		<polygon points="56.4,4.2 56.6,4.4 56.7,4.3 56.5,4.1 		"/>
		<polygon points="56.2,6.4 56.1,6.3 56,6.5 56.1,6.6 		"/>
		<path d="M56.3,6.3L56.3,6.3l0.1-0.1c0,0,0-0.1-0.1-0.1l0,0l-0.1,0l0-0.1l-0.1,0c0,0,0,0-0.1,0L56,6l0,0.1l0.1,0c0,0,0,0,0.1,0l0,0
			l0,0C56.2,6.2,56.3,6.2,56.3,6.3L56.3,6.3z"/>
		<polygon points="56.2,6.6 56.1,6.6 56.1,6.8 56.2,6.8 		"/>
		<polygon points="58.6,1.9 58.4,2 58.4,2.1 58.6,2 		"/>
		<polygon points="60,3.1 60,3.1 60.1,3.3 60.2,3.2 60.1,3.1 60.2,3.1 60,3 60.1,2.9 60,2.8 59.9,3 59.9,3 59.9,3.1 		"/>
		<path d="M59.6,2.3c0,0,0.1,0,0.1,0l0.1,0l0-0.1l0,0l0.1-0.1L59.8,2l-0.1,0.1l0.1,0.1l0,0c0,0-0.1,0-0.1,0l0,0L59.5,2l-0.1,0.1
			L59.6,2.3L59.6,2.3L59.6,2.3L59.6,2.3z"/>
		<polygon points="60,4 59.9,4.1 60,4.2 60.1,4 		"/>
		<path d="M59.8,4.5l0.2,0l0-0.1l-0.1,0c0,0,0,0,0.1-0.1l0,0l-0.1-0.1l0,0c0,0,0,0.1-0.1,0.1l0,0l0,0l0,0L59.8,4.5z"/>
		<polygon points="59.1,9.5 59,9.6 58.9,9.6 58.9,9.8 59.1,9.8 59,9.6 59.2,9.5 		"/>
		<path d="M58.5,12.3L58.5,12.3c-0.1,0-0.1,0-0.2,0l-0.1,0l0,0.1l0.1,0C58.3,12.4,58.4,12.4,58.5,12.3l0,0.1L58.5,12.3z"/>
		<polygon points="59.5,2.8 59.4,2.8 59.3,2.9 59.3,2.9 59.3,2.9 59.2,3 59.3,3.1 59.5,2.9 59.5,2.9 59.5,2.9 		"/>
		<rect x="58.4" y="7.4" transform="matrix(0.9568 -0.2906 0.2906 0.9568 0.3575 17.3207)" width="0.2" height="0.1"/>
		<path d="M61.1,2.4L61.1,2.4l0-0.2l0,0l0-0.1c0,0,0-0.1,0-0.1l0-0.1l-0.1,0l0,0.1c0,0,0,0,0,0.1l0,0.1l0.1,0l0,0L61.1,2.4z"/>
		<polygon points="58.7,10.6 58.6,10.6 58.5,10.8 58.6,10.8 		"/>
		
			<rect x="54.5" y="5.6" transform="matrix(1 -1.129253e-03 1.129253e-03 1 -6.346753e-03 6.164155e-02)" width="0.2" height="0.1"/>
		<polygon points="62.2,2.4 62.1,2.3 62,2.3 62.2,2.5 		"/>
		<polygon points="62.1,1.2 62.2,1.2 62.3,1.1 62.3,1 		"/>
		<polygon points="62.1,1.7 62,1.6 61.9,1.8 62,1.9 		"/>
		<polygon points="61.2,10.3 61.1,10.1 61,10.1 61.1,10.3 		"/>
		<polygon points="61.3,1 61.2,1 61.2,1.1 61.4,1.1 61.4,1.1 61.4,1.1 61.4,1 61.4,1 61.4,1 		"/>
		<polygon points="61,9.5 61,9.7 61.1,9.7 61.1,9.5 		"/>
		<path d="M61.3,3.5L61.3,3.5l0.1-0.1c0,0,0-0.1-0.1-0.1l0,0l-0.1,0.1l0,0C61.2,3.4,61.2,3.4,61.3,3.5L61.3,3.5z"/>
		<path d="M57.9,2L58,1.9l-0.1-0.1l-0.1,0.1l0,0l0,0.2l0-0.1l-0.1,0l0,0.2l0,0l0,0c0,0,0,0.1-0.1,0.1l0,0l0.1,0.1l0,0
			c0,0,0-0.1,0.1-0.1l0,0l-0.1,0l0,0l0-0.1l0.1,0L57.9,2z"/>
		<polygon points="58.1,5.3 58,5.3 58,5.3 57.9,5.3 57.9,5.5 58.1,5.5 58.2,5.6 58.2,5.5 58.1,5.4 58.2,5.4 		"/>
		<rect x="56.8" y="8.6" transform="matrix(0.1658 -0.9862 0.9862 0.1658 38.9545 63.3202)" width="0.2" height="0.1"/>
		<polygon points="58,6.6 58.1,6.5 58.1,6.3 58,6.4 		"/>
		<path d="M59,3.7L59,3.7l0.1,0.2L59,4l0.1,0.1l0,0c0,0,0,0.1,0,0.1l0,0.1l0.1,0l0-0.1c0,0,0-0.1,0-0.1l0-0.1l-0.1,0l0.1-0.1l-0.1,0
			l0-0.1L59,3.7z"/>
		<rect x="58.2" y="13.9" transform="matrix(0.1763 -0.9843 0.9843 0.1763 34.3506 68.8894)" width="0.2" height="0.1"/>
		<path d="M57.1,7.5L57.1,7.5C57,7.4,57,7.4,56.9,7.4l0,0l-0.1,0.1l0,0c0,0,0.1,0,0.1,0.1L57.1,7.5L57.1,7.5z"/>
		<polygon points="57.6,7.2 57.6,7.1 57.7,7.1 57.7,7.1 57.6,7 57.6,7 57.6,7 57.5,6.9 57.5,7 57.5,7 57.5,7.2 		"/>
		<rect x="57.8" y="5.6" transform="matrix(1 -9.039962e-03 9.039962e-03 1 -4.858702e-02 0.524)" width="0.2" height="0.1"/>
		<polygon points="59,7.9 59.1,7.7 59.1,7.7 59.2,7.6 59,7.5 58.9,7.6 59,7.6 58.9,7.8 		"/>
		<path d="M57.7,10.9c0,0,0,0.1,0,0.1l0,0.1l0.1,0l0-0.1c0,0,0-0.1,0-0.1l0-0.1L57.7,10.9L57.7,10.9z"/>
		<polygon points="54.7,9.8 54.5,9.9 54.6,10 54.8,10 		"/>
		<path d="M59.7,1.8L59.7,1.8l0-0.1L59.7,1.8c-0.1-0.1-0.1,0-0.1,0l-0.1,0l-0.1,0.2l0.1,0.1l0-0.1L59.6,2l0.1-0.1L59.7,1.8L59.7,1.8
			C59.6,1.8,59.6,1.8,59.7,1.8z"/>
		<path d="M57.9,8.2l0-0.1l-0.1,0c0,0-0.1,0-0.1,0l-0.1,0l0,0.1h0.1C57.8,8.2,57.8,8.2,57.9,8.2L57.9,8.2z"/>
		<polygon points="57.3,8.2 57,8.2 57,8.3 57.1,8.3 57.1,8.4 57.2,8.4 57.2,8.3 57.2,8.3 		"/>
		<path d="M59.3,1.3L59.3,1.3l-0.2,0l-0.1,0l0,0l0,0l0.1,0.1l0,0l0.1,0.1l0,0l0,0.1l-0.2,0.1l0,0.1l0.2-0.1l0-0.1l0,0
			c0,0,0.1,0,0.1,0l0.1,0l0-0.1L59.3,1.3c0.1,0.1,0,0.1,0,0.1l0,0L59.3,1.3L59.3,1.3z"/>
		<path d="M54.8,10.1l-0.1,0l0,0.1c0,0,0,0.1,0,0.1l0,0.1l0.1,0l0-0.1C54.8,10.2,54.8,10.2,54.8,10.1L54.8,10.1z"/>
		<path d="M52.5,13l0.2,0l0-0.1L52.5,13l0.1-0.3l-0.1,0l0,0l-0.1-0.1l0,0c0,0,0,0,0,0l0,0l-0.1,0.1l0,0c0,0,0,0.1,0.1,0.1l0,0
			l0.1-0.1l0,0c0,0,0,0,0,0c0,0,0,0,0,0l0,0l0,0.2l0,0l0,0L52.5,13z"/>
		<path d="M52.7,1.9L52.7,1.9l-0.1,0L52.7,1.9c-0.1,0.1-0.1,0.1,0,0.1l0,0L52.8,2L52.7,1.9C52.8,1.9,52.7,1.9,52.7,1.9z"/>
		<polygon points="57.6,11.9 57.4,11.8 57.4,11.8 57.5,12 		"/>
		<polygon points="57.4,13.7 57.3,13.6 57.1,13.6 57.2,13.7 		"/>
		<polygon points="57.3,8.7 57.3,8.7 57.4,8.7 57.2,8.5 57.1,8.6 57.2,8.7 57,8.7 57.1,8.8 57.3,8.7 		"/>
		<polygon points="58.4,16.9 58.2,16.8 58.2,16.9 58.3,17 		"/>
		<path d="M57.1,12.4L57.1,12.4l-0.1,0c0,0,0,0-0.1,0.1l0,0l0.1,0.1l0,0C57,12.5,57.1,12.4,57.1,12.4L57.1,12.4z"/>
		<polygon points="58.3,7.6 58.2,7.5 58.1,7.6 58.3,7.7 		"/>
		<polygon points="57.7,17.1 57.6,17.1 57.6,17.3 57.7,17.3 		"/>
		<path d="M58,14.4L58,14.4l0.1,0L58,14.4c0.1-0.1,0.1-0.1,0.1-0.1l0,0l-0.1,0L58,14.4C58,14.3,58,14.3,58,14.4z"/>
		<polygon points="57.9,16.5 57.7,16.4 57.7,16.5 57.9,16.6 		"/>
		<polygon points="57.6,14.1 57.5,14 57.4,14.2 57.5,14.3 		"/>
		<polygon points="56.4,14.4 56.4,14.3 56.2,14.3 56.2,14.4 		"/>
		<polygon points="57.1,13.5 57,13.5 56.9,13.7 56.9,13.7 		"/>
		<path d="M56,12.7L56,12.7c-0.1,0.1-0.1,0.1-0.1,0.1l0,0l0.1,0c0,0,0,0-0.1,0l-0.1,0l0,0.1l0.1,0c0,0,0.1,0,0.1,0l0.1,0l0-0.1l0,0
			c0,0,0,0,0.1-0.1L56,12.7L56,12.7z"/>
		<rect x="56.3" y="16.5" transform="matrix(0.9691 -0.2466 0.2466 0.9691 -2.3668 14.4024)" width="0.1" height="0.2"/>
		<path d="M56.2,12.6C56.2,12.5,56.2,12.5,56.2,12.6l0.1-0.1l-0.1-0.1l0,0C56.1,12.4,56.1,12.5,56.2,12.6l-0.1,0L56.2,12.6
			L56.2,12.6z"/>
		<polygon points="56.9,13.6 56.8,13.5 56.6,13.7 56.7,13.7 		"/>
		<polygon points="56.5,12.1 56.3,11.9 56.2,12 56.4,12.1 		"/>
		<rect x="56.5" y="12.1" transform="matrix(0.236 -0.9717 0.9717 0.236 31.327 64.2649)" width="0.1" height="0.2"/>
		<rect x="58.8" y="14.1" transform="matrix(0.9891 -0.1473 0.1473 0.9891 -1.4453 8.8277)" width="0.2" height="0.1"/>
		<polygon points="60,5.8 59.8,5.8 59.8,5.9 60,5.9 		"/>
		<polygon points="60.1,10.6 59.9,10.5 59.8,10.6 60,10.7 		"/>
		<polygon points="59.9,3.6 59.7,3.6 59.7,3.7 59.9,3.7 		"/>
		<path d="M59.5,7.4L59.5,7.4l0-0.2l0,0l0,0l-0.1,0.1l0,0l0,0l0,0.2l0.1,0l-0.1,0l0.1,0.1L59.5,7.4L59.5,7.4L59.5,7.4L59.5,7.4z
			 M59.4,7.3L59.4,7.3l0,0.1L59.4,7.3z"/>
		<path d="M60.3,6L60.3,6c-0.1,0.1-0.1,0.1-0.1,0.1l0,0l0.1,0.1l0,0c0,0,0-0.1,0.1-0.1L60.3,6L60.3,6z"/>
		<path d="M60.2,8.2L60.2,8.2L60.2,8.2l0-0.1c0,0-0.1,0-0.1,0l-0.1,0l0,0.1l0.1,0C60.1,8.2,60.2,8.2,60.2,8.2z"/>
		<polygon points="60.3,12.7 60.2,12.7 60.2,12.9 60.3,12.9 		"/>
		<polygon points="59.4,8.1 59.3,8.1 59.4,8.3 59.5,8.2 		"/>
		<polygon points="60.3,7.6 60.2,7.6 60.1,7.8 60.2,7.8 		"/>
		<polygon points="59.1,12.9 58.9,12.8 58.9,12.9 59,13 		"/>
		<polygon points="59.5,14.7 59.4,14.5 59.3,14.6 59.4,14.7 		"/>
		<polygon points="56.1,13.6 56,13.6 55.9,13.7 55.9,13.8 		"/>
		<polygon points="58.9,6.8 58.7,6.7 58.6,6.7 58.8,6.9 		"/>
		<rect x="58.4" y="14.5" transform="matrix(0.9883 -0.1527 0.1527 0.9883 -1.5286 9.1092)" width="0.2" height="0.1"/>
		<rect x="58.5" y="14.3" transform="matrix(0.9979 -6.522434e-02 6.522434e-02 0.9979 -0.8115 3.8563)" width="0.2" height="0.1"/>
		<polygon points="59.2,11.1 59.1,11.3 59.2,11.4 59.3,11.2 		"/>
		<rect x="59.1" y="15.9" transform="matrix(0.3664 -0.9305 0.9305 0.3664 22.6192 65.2034)" width="0.2" height="0.1"/>
		<polygon points="58.5,15.8 58.3,15.7 58.2,15.8 58.4,15.9 		"/>
		<path d="M60.6,4.6C60.6,4.6,60.7,4.6,60.6,4.6l0.1-0.1l-0.1-0.1l0,0C60.6,4.5,60.5,4.6,60.6,4.6l-0.1,0L60.6,4.6L60.6,4.6z"/>
		<polygon points="52.7,15.1 52.7,15.3 52.8,15.3 52.8,15.1 52.7,15.1 		"/>
		<polygon points="52.8,14.1 52.7,14.1 52.6,14.3 52.7,14.4 		"/>
		<polygon points="52.4,16.6 52.4,16.5 52.2,16.5 52.2,16.7 		"/>
		<polygon points="52.6,16.7 52.4,16.6 52.3,16.7 52.6,16.8 		"/>
		<polygon points="52.6,13.5 52.7,13.6 52.7,13.3 52.6,13.3 52.6,13.4 52.5,13.4 52.4,13.5 52.6,13.6 		"/>
		<polygon points="53.5,11.9 53.3,11.8 53.2,11.9 53.4,12 		"/>
		<path d="M52.8,15.7L52.8,15.7L52.8,15.7L52.8,15.7c0-0.1,0-0.1-0.1-0.1l0,0l0,0.1L52.8,15.7C52.7,15.7,52.8,15.7,52.8,15.7z"/>
		<rect x="52.9" y="16" transform="matrix(0.6247 -0.7809 0.7809 0.6247 7.4014 47.4373)" width="0.2" height="0.1"/>
		<polygon points="53.1,14.9 52.9,15 52.9,15.1 53.1,15.1 		"/>
		<polygon points="53.2,15.2 53,15.3 53,15.4 53.2,15.3 		"/>
		<path d="M60.5,1.3C60.6,1.3,60.6,1.3,60.5,1.3l0.1-0.1l-0.1-0.1l0,0C60.5,1.2,60.5,1.2,60.5,1.3l-0.1,0L60.5,1.3L60.5,1.3z"/>
		<polygon points="60.5,8.9 60.6,8.8 60.6,8.7 60.6,8.7 60.5,8.7 60.4,8.7 60.4,8.7 60.4,8.7 60.3,8.8 60.5,8.8 		"/>
		<path d="M60.4,1.7c0,0,0-0.1,0-0.1l0-0.1l-0.1,0l0,0.1c0,0,0,0.1,0,0.1l0,0.1L60.4,1.7L60.4,1.7z"/>
		<polygon points="60.7,1.5 60.6,1.5 60.6,1.7 60.7,1.7 		"/>
		<rect x="60.6" y="5" transform="matrix(0.9165 -0.4 0.4 0.9165 3.015 24.7052)" width="0.1" height="0.2"/>
		<polygon points="60.9,3.4 60.7,3.5 60.8,3.6 61,3.5 		"/>
		<polygon points="61.2,2.6 61.1,2.5 61,2.5 61.1,2.7 		"/>
		<polygon points="60.8,4.4 60.9,4.3 60.8,4.1 60.7,4.2 		"/>
		<polygon points="54.6,10.8 54.6,11.1 54.7,11.1 54.7,10.9 		"/>
		<polygon points="55.5,15.2 55.3,15.1 55.3,15.2 55.4,15.3 		"/>
		<rect x="55.1" y="14.7" transform="matrix(0.9997 -2.517986e-02 2.517986e-02 0.9997 -0.3545 1.3947)" width="0.2" height="0.1"/>
		<path d="M55.2,14.4L55.2,14.4L55.2,14.4l-0.1,0.1l0.2,0.1l0-0.1L55.2,14.4l0.2,0.1l0-0.1L55.2,14.4l0-0.1l-0.1,0c0,0-0.1,0-0.1,0
			l-0.1,0l0,0.1l0.1,0C55.1,14.4,55.1,14.4,55.2,14.4L55.2,14.4z"/>
		<polygon points="55,14.9 54.9,14.9 55,15.1 55.1,15.1 		"/>
		<polygon points="55.7,15.8 55.5,15.9 55.5,16 55.7,15.9 		"/>
		<rect x="53.3" y="10.4" transform="matrix(0.9999 -1.055045e-02 1.055045e-02 0.9999 -0.1077 0.5642)" width="0.2" height="0.1"/>
		<path d="M54.8,16.2c0,0,0.1,0,0.1,0l0.1,0l0-0.1l-0.1,0c0,0-0.1,0-0.1,0L54.8,16.2L54.8,16.2L54.8,16.2z"/>
		<path d="M55.4,16.8c0,0,0.1,0,0.1,0l0.1,0l0-0.1l-0.1,0c0,0-0.1,0-0.1,0L55.4,16.8L55.4,16.8L55.4,16.8z"/>
		<rect x="55.7" y="12.9" transform="matrix(0.9984 -5.647573e-02 5.647573e-02 0.9984 -0.6466 3.1675)" width="0.1" height="0.2"/>
		<polygon points="54.1,12.5 54,12.5 53.9,12.7 54,12.7 		"/>
		<polygon points="54.1,14.5 54.1,14.4 53.9,14.5 53.9,14.6 		"/>
		<polygon points="54.8,10.6 54.6,10.7 54.6,10.8 54.8,10.7 		"/>
		<path d="M54.3,14.3C54.3,14.3,54.3,14.3,54.3,14.3L54.3,14.3l0.1,0l0-0.1c0,0,0-0.1,0-0.1l0-0.1l-0.1,0l0,0l-0.2,0.1l0.1,0.1
			L54.3,14.3z"/>
		<polygon points="54.1,12.3 54,12.3 53.9,12.4 53.9,12.5 		"/>
		<polygon points="54.6,15.9 54.4,15.9 54.4,16 54.6,16 		"/>
		<polygon points="55.9,16.2 55.8,16.2 55.8,16.5 55.9,16.5 		"/>
		<rect x="54.6" y="11.8" transform="matrix(0.9594 -0.282 0.282 0.9594 -1.1555 15.885)" width="0.1" height="0.2"/>
		<polygon points="52.2,17 52.2,17.1 52.2,17 		"/>
		<path d="M64.9,2.3L64.9,2.3c-0.1,0-0.1-0.1-0.1-0.1l0,0l-0.1,0.1l0,0C64.7,2.3,64.7,2.3,64.9,2.3L64.9,2.3L64.9,2.3z"/>
		<path d="M64.7,4.5L64.7,4.5l0-0.1l-0.1,0c0,0-0.1,0-0.1,0l-0.1,0l0,0.1l0,0l0,0l0.2,0.1L64.7,4.5L64.7,4.5z"/>
		<path d="M64.7,5.2L64.7,5.2L64.7,5.2c-0.1-0.1-0.2-0.1-0.2,0l-0.1,0l0,0.1l0.1,0C64.6,5.3,64.7,5.2,64.7,5.2L64.7,5.2z"/>
		<path d="M65,2l-0.1,0l0,0.1c0,0,0,0.1,0,0.1l0,0.1l0.1,0l0-0.1C65,2.1,65,2,65,2L65,2z"/>
		<rect x="64.4" y="1" transform="matrix(8.015638e-02 -0.9968 0.9968 8.015638e-02 58.2377 65.2404)" width="0.1" height="0.2"/>
		<polygon points="64.6,6 64.5,5.9 64.4,6.1 64.5,6.1 		"/>
		<polygon points="64.7,1.6 64.7,1.6 64.6,1.5 64.5,1.6 64.7,1.8 64.7,1.7 64.7,1.7 64.9,1.6 64.9,1.5 		"/>
		<polygon points="65.2,7.4 65.4,7.4 65.4,7.2 65.3,7.2 		"/>
		<polygon points="64.6,1.3 64.6,1.5 64.7,1.5 64.7,1.3 		"/>
		<polygon points="63.9,8.5 64.1,8.7 64.1,8.7 64,8.5 		"/>
		<polygon points="64.3,5.3 64.2,5.2 64.1,5.3 64.2,5.4 		"/>
		<polygon points="65,5 65.1,4.8 65,4.7 64.9,5 		"/>
		<polygon points="64.8,2.6 64.9,2.8 65,2.7 64.9,2.5 		"/>
		<polygon points="65,3.9 65.1,4.1 65.2,4 65,3.8 		"/>
		<polygon points="64.7,4.7 64.6,4.7 64.5,4.8 64.5,4.9 		"/>
		<polygon points="64.4,3.2 64.3,3 64.2,3.1 64.3,3.3 		"/>
		<polygon points="64.2,1.4 64.3,1.4 64.3,1.2 64.2,1.2 		"/>
		<polygon points="64.5,3.5 64.3,3.3 64.3,3.4 64.5,3.6 		"/>
		<rect x="64.3" y="2.9" transform="matrix(0.2397 -0.9709 0.9709 0.2397 46.1293 64.7301)" width="0.2" height="0.1"/>
		<polygon points="62.4,1 62.4,1 62.3,1 		"/>
		<path d="M53.6,17.7L53.6,17.7c0-0.1,0-0.1-0.1-0.2l0,0l-0.1,0l0,0c0,0,0,0.1,0,0.1l0,0L53.6,17.7L53.6,17.7z"/>
		<polygon points="64.1,2.1 64.3,2 64.3,1.9 64.1,2 		"/>
		<path d="M68.5,5.3L68.5,5.3c0.1-0.1,0.1-0.1,0.1-0.1c0,0,0,0,0-0.1l0-0.1l-0.1,0l0,0.1c0,0,0,0,0,0.1L68.5,5.3L68.5,5.3z"/>
		<polygon points="65.4,10.4 65.3,10.2 65.2,10.2 65.3,10.4 		"/>
		<path d="M68.7,6.9l0.1,0l0-0.1c0,0,0,0,0,0c0,0,0-0.1,0-0.1l0-0.1l-0.1,0l0,0.1C68.7,6.8,68.7,6.8,68.7,6.9
			C68.7,6.8,68.7,6.8,68.7,6.9L68.7,6.9z"/>
		<polygon points="68,1 68.1,1 68,1 		"/>
		<path d="M68.8,3.7C68.8,3.7,68.8,3.8,68.8,3.7l-0.1,0.1l0.1,0l0,0c0,0,0-0.1,0-0.1l0-0.1L68.8,3.7L68.8,3.7z"/>
		<rect x="65" y="5.1" transform="matrix(0.9473 -0.3203 0.3203 0.9473 1.796 21.1369)" width="0.2" height="0.1"/>
		<polygon points="64.7,8.3 64.6,8.1 64.5,8.2 64.6,8.4 		"/>
		<path d="M64.4,11C64.4,11,64.5,11,64.4,11l0.1-0.1l-0.1-0.1l0,0C64.4,10.9,64.4,10.9,64.4,11L64.4,11L64.4,11L64.4,11z"/>
		<path d="M64.2,10.5C64.2,10.5,64.2,10.4,64.2,10.5l0.1-0.1l-0.1-0.1l0,0C64.2,10.4,64.2,10.4,64.2,10.5l-0.1-0.1L64.2,10.5
			L64.2,10.5z"/>
		<polygon points="64.1,9.3 64.1,9.1 64,9.1 64,9.3 		"/>
		<polygon points="64.9,7.6 64.8,7.7 64.9,7.9 65,7.8 		"/>
		<polygon points="64.8,8.4 64.9,8.6 65,8.6 64.9,8.4 		"/>
		<polygon points="65.2,8.9 65,8.9 65,9 65.2,9 		"/>
		<polygon points="64.9,5.3 64.7,5.3 64.6,5.4 64.9,5.4 		"/>
		<polygon points="63.5,4.4 63.3,4.4 63.3,4.6 63.4,4.6 		"/>
		<path d="M61.7,13.3L61.7,13.3l-0.1-0.1L61.7,13.3c-0.1,0-0.1,0-0.2,0l0,0l0.1,0.1L61.7,13.3C61.7,13.4,61.7,13.4,61.7,13.3z"/>
		<path d="M61.8,10C61.8,10,61.9,10,61.8,10l0.1-0.1l-0.1-0.1l0,0C61.8,9.9,61.8,9.9,61.8,10l-0.1,0L61.8,10L61.8,10z"/>
		<polygon points="62,9.4 61.9,9.3 61.8,9.3 62,9.5 		"/>
		<polygon points="61.6,16.9 61.4,16.9 61.4,17 61.6,17 		"/>
		<polygon points="62.5,8.1 62.4,7.9 62.3,7.9 62.4,8.1 		"/>
		<polygon points="62.5,7.3 62.3,7.3 62.3,7.4 62.5,7.4 		"/>
		<path d="M62.2,13.8c0,0,0.1,0,0.1-0.1l0,0l-0.1-0.1l0,0C62.2,13.7,62.2,13.7,62.2,13.8L62.2,13.8L62.2,13.8L62.2,13.8z"/>
		<polygon points="62.2,6 62,5.8 62,5.8 62,5.8 61.8,5.8 61.8,5.8 61.7,5.8 61.6,5.9 61.8,6 61.8,5.9 61.8,5.9 62,5.9 62.1,6 		"/>
		<polygon points="61.4,5.5 61.2,5.5 61.2,5.6 61.4,5.6 		"/>
		<polygon points="61.8,7.7 61.8,7.8 62,7.9 62,7.8 		"/>
		<polygon points="61.1,5.9 61.1,5.8 60.9,5.8 60.8,5.8 60.8,5.9 60.9,5.9 		"/>
		<polygon points="61,4.9 60.9,4.9 60.8,5 60.9,5.1 		"/>
		<polygon points="60.8,8.2 60.7,8.2 60.6,8.4 60.7,8.4 		"/>
		<polygon points="60.7,5.8 60.5,5.7 60.5,5.8 60.5,5.8 60.4,5.8 60.4,6 60.5,6 60.5,5.8 60.7,5.9 		"/>
		<path d="M61,17.6L61,17.6l0.1,0l0-0.1c0,0,0-0.1,0-0.1l0-0.1l-0.1,0L61,17.6C61,17.5,61,17.5,61,17.6z"/>
		<rect x="61.1" y="17" transform="matrix(0.1773 -0.9842 0.9842 0.1773 33.5024 74.2099)" width="0.1" height="0.2"/>
		<path d="M61.1,9.5L61.1,9.5L61.1,9.5l0-0.1c0,0-0.1,0-0.1,0l-0.1,0l0,0.1l0.1,0C61,9.4,61,9.5,61.1,9.5z"/>
		<path d="M61,11.8c0,0,0.1,0,0.1,0l0.1,0l0-0.1l-0.1,0c0,0-0.1,0-0.1,0L61,11.8L61,11.8L61,11.8z"/>
		<polygon points="63.5,7.6 63.4,7.4 63.3,7.5 63.4,7.7 		"/>
		<polygon points="63.7,5.5 63.6,5.3 63.5,5.3 63.6,5.6 		"/>
		<polygon points="63.5,10.3 63.4,10.2 63.3,10.3 63.5,10.4 		"/>
		<path d="M63.7,8C63.8,8,63.8,8,63.7,8l0.1-0.1l-0.1-0.1l0,0C63.7,7.9,63.7,7.9,63.7,8l-0.1,0L63.7,8L63.7,8z"/>
		<path d="M65.2,4.8L65.2,4.8L65.2,4.8L65.2,4.8c0,0.1,0,0.1,0.1,0.1l0,0l0-0.1L65.2,4.8C65.3,4.8,65.2,4.8,65.2,4.8z"/>
		<path d="M60.5,12.9c0,0,0.1,0,0.1,0l0.1,0l0-0.1l-0.1,0c0,0-0.1,0-0.1,0L60.5,12.9L60.5,12.9L60.5,12.9z"/>
		<polygon points="63.9,1.9 64,1.9 64,1.9 64.1,1.9 64.2,1.8 64.1,1.8 64.2,1.8 64.1,1.7 64.1,1.7 64.1,1.6 64,1.7 64,1.7 64,1.7 
			63.9,1.8 63.9,1.8 63.9,1.8 63.9,1.8 		"/>
		<polygon points="63.9,9.3 63.7,9.2 63.7,9.3 63.9,9.4 		"/>
		<rect x="62.5" y="6.3" transform="matrix(0.9579 -0.287 0.287 0.9579 0.7875 18.2168)" width="0.1" height="0.2"/>
		<polygon points="64,9.9 63.9,9.8 63.7,10 63.8,10.1 		"/>
		<polygon points="63.6,1.8 63.6,1.9 63.8,1.8 63.8,1.7 		"/>
		<polygon points="63.2,3.8 63.3,3.7 63.3,3.6 63.1,3.7 63.1,3.8 63.2,3.8 63.1,3.9 63.1,4 63.3,3.8 		"/>
		<path d="M62.8,3.9L62.8,3.9l0.1-0.1l-0.1,0c0,0-0.1,0-0.1,0l-0.1,0l0,0.1l0.1,0C62.7,3.9,62.7,3.9,62.8,3.9z"/>
		<polygon points="62.6,5.2 62.4,5.2 62.4,5.4 62.6,5.3 		"/>
		<polygon points="63.2,1.9 63.3,2 63.4,1.8 63.3,1.7 		"/>
		<path d="M63.4,3.2c0,0-0.1,0-0.1,0l-0.1,0l0,0.1l0.1,0c0,0,0.1,0,0.1,0L63.4,3.2L63.4,3.2L63.4,3.2z"/>
		<polygon points="63.8,3.7 63.9,3.5 63.8,3.5 63.7,3.7 		"/>
		<path d="M63.6,3.9C63.5,3.9,63.5,3.9,63.6,3.9L63.5,4l0.1,0.1l0,0C63.6,4,63.6,4,63.6,3.9l0.1,0L63.6,3.9L63.6,3.9z"/>
		<polygon points="53.9,9.3 53.9,9.3 54,9.5 54,9.5 		"/>
		<polygon points="57.2,5.7 57,5.7 57,5.8 57.2,5.8 		"/>
		<polygon points="57,4.2 56.9,4 56.9,4 56.9,4 56.9,4 56.9,4 56.8,4 56.7,4.1 56.6,4 56.6,4.1 56.7,4.2 56.7,4.2 56.8,4.2 
			56.8,4.2 56.9,4.3 		"/>
		<polygon points="57,7.2 57,7 56.9,7 56.9,7.1 56.9,7.2 		"/>
		<polygon points="56.7,4.8 56.6,5 56.6,4.9 56.6,5 56.6,4.9 56.5,4.9 56.5,4.9 56.5,4.9 56.7,4.8 56.6,4.7 56.5,4.8 56.5,4.8 
			56.4,4.8 56.4,5 56.4,5 56.4,5.2 56.5,5.2 56.5,5.1 56.5,5.1 56.5,5.2 56.6,5.2 56.6,5.2 56.7,5.2 56.7,5.1 56.6,5.1 56.7,5 
			56.7,5 56.8,4.8 		"/>
		<rect x="57.6" y="5.3" transform="matrix(0.1579 -0.9875 0.9875 0.1579 43.1937 61.4324)" width="0.1" height="0.2"/>
		<rect x="57.3" y="5.3" transform="matrix(0.1409 -0.99 0.99 0.1409 44.0463 61.4209)" width="0.2" height="0.1"/>
		<path d="M57.7,4.9c0,0-0.1,0-0.1,0l-0.1,0l0,0c0,0,0,0,0,0l0,0l-0.1,0.1l0,0c0,0,0.1,0.1,0.1,0.1l0,0L57.7,4.9
			c-0.1,0.1,0,0.1,0,0.1l0.1,0L57.7,4.9L57.7,4.9z"/>
		<polygon points="57.4,5.8 57.4,5.7 57.2,5.8 57.2,5.9 		"/>
		<path d="M57.4,5.4L57.4,5.4c-0.1,0-0.1,0-0.2,0l-0.1,0l0,0.1l-0.1,0.1l0,0c0,0,0.1,0,0.1,0.1l0,0l0.1-0.1l0,0c0,0-0.1,0-0.1-0.1
			l0,0c0,0,0.1,0,0.1,0l0.1,0L57.4,5.4z"/>
		<polygon points="56.8,5.2 56.5,5.2 56.6,5.3 56.8,5.3 		"/>
		<polygon points="56,6.4 56,6.3 55.8,6.3 55.8,6.4 		"/>
		<polygon points="56.4,8.3 56.3,8.2 56.1,8.2 56.1,8.3 		"/>
		<path d="M56,8.3L56,8.3L56,8.3c0.1-0.1,0.1-0.1,0.1-0.1l0,0L56,8.1l0,0C56,8.1,56,8.2,56,8.3L56,8.3L56,8.3l-0.1,0l0,0.2l0.1,0
			L56,8.3z"/>
		<polygon points="56,6.1 56,6 55.8,6.1 55.8,6.2 		"/>
		<rect x="56.5" y="6.7" transform="matrix(0.1597 -0.9872 0.9872 0.1597 40.8308 61.5457)" width="0.2" height="0.1"/>
		<rect x="56.6" y="7.2" transform="matrix(0.9331 -0.3595 0.3595 0.9331 1.1533 20.8539)" width="0.1" height="0.2"/>
		<polygon points="56.7,5.5 56.5,5.6 56.6,5.7 56.8,5.6 		"/>
		<path d="M56.4,6.6L56.4,6.6l0.1,0l0-0.1C56.5,6.6,56.5,6.6,56.4,6.6l0.1-0.1l0,0l0,0l-0.1,0c0,0,0,0,0,0l-0.1,0l0,0.1L56.4,6.6
			C56.4,6.6,56.4,6.6,56.4,6.6C56.4,6.6,56.4,6.6,56.4,6.6z"/>
		<polygon points="58.8,1.9 59,1.8 58.9,1.7 58.8,1.8 		"/>
		<polygon points="59,4.8 59.1,4.9 59.3,4.7 59.2,4.6 		"/>
		<polygon points="59.3,5.7 59.1,5.8 59.1,5.9 59.3,5.8 		"/>
		<polygon points="59,6 59,6.2 59.1,6.3 59.1,6.1 		"/>
		<polygon points="59,2.2 58.9,2.2 59,2.4 59.1,2.3 		"/>
		<rect x="58" y="3.1" transform="matrix(0.6671 -0.7449 0.7449 0.6671 16.9957 44.3598)" width="0.2" height="0.1"/>
		<polygon points="52.2,14 52.2,14 52.3,14.2 52.4,14.1 52.3,13.9 		"/>
		<polygon points="52.5,15.7 52.3,15.6 52.2,15.7 52.4,15.8 		"/>
		<path d="M58.5,1L58.5,1l0,0.1L58.5,1c0.1,0.1,0.1,0,0.2,0l0,0l0,0L58.5,1C58.5,1,58.5,1,58.5,1z"/>
		<path d="M52.3,16L52.3,16l0-0.1L52.3,16C52.2,15.9,52.2,15.9,52.3,16L52.3,16L52.3,16C52.2,16,52.3,16,52.3,16z"/>
		<path d="M59.1,5.7L59.1,5.7l0.1-0.1l-0.1,0c0,0-0.1,0-0.1,0l-0.1,0l0,0.1l0.1,0C59,5.7,59.1,5.7,59.1,5.7z"/>
		<polygon points="58.3,2.9 58.1,2.9 58.1,3 58.3,3 		"/>
		<path d="M52.9,12l-0.1,0l0-0.1c0,0,0,0,0-0.1l0-0.1l-0.1,0l0-0.1l-0.1,0l0,0.2l0.1,0l0,0.1l0,0l0,0.1l0.2,0L52.9,12z"/>
		<polygon points="58,3.9 58.1,3.9 58.1,3.7 58,3.7 		"/>
		<polygon points="58.7,2.9 58.5,2.8 58.5,2.9 58.6,3 		"/>
		<polygon points="55.9,5.2 55.7,5.1 55.6,5.2 55.8,5.3 		"/>
		<polygon points="58.9,2.7 58.9,2.6 58.7,2.7 58.7,2.8 		"/>
		<path d="M58.8,1.3C58.8,1.3,58.8,1.3,58.8,1.3L58.8,1.3L58.8,1.3l0,0.2l0.2,0l0-0.1L58.8,1.3l0.1,0l0,0c0,0,0-0.1,0-0.1l0,0
			l-0.1,0l-0.1-0.1l-0.1,0.1L58.8,1.3L58.8,1.3z"/>
		<polygon points="59.1,5.2 59.1,5.1 58.9,5 58.9,5.1 		"/>
		<path d="M58.4,3.2C58.4,3.2,58.4,3.2,58.4,3.2l0.1-0.1L58.4,3l0,0C58.3,3.1,58.3,3.1,58.4,3.2l-0.1,0L58.4,3.2L58.4,3.2z"/>
		<polygon points="52.4,15.2 52.2,15.2 52.2,15.3 52.4,15.3 		"/>
		<polygon points="52.7,10 52.6,9.9 52.5,10.1 52.5,10.1 		"/>
		<path d="M52.4,11.7C52.4,11.7,52.4,11.7,52.4,11.7l0.1-0.1l-0.1-0.1l0,0C52.3,11.6,52.3,11.6,52.4,11.7l-0.1,0L52.4,11.7
			L52.4,11.7z"/>
		<polygon points="57.7,1.5 57.8,1.5 57.9,1.3 57.8,1.3 		"/>
		<polygon points="53,9.2 53.1,9.3 53.2,9.1 53.2,9 		"/>
		<polygon points="57.7,1 57.8,1 57.8,1 57.7,1 		"/>
		<polygon points="53.1,11.6 52.9,11.6 52.9,11.7 53.1,11.8 		"/>
		<polygon points="53.3,9.5 53.2,9.4 53.1,9.5 53.3,9.6 		"/>
		<polygon points="53,9.5 53,9.5 53.1,9.3 53,9.3 52.9,9.4 52.9,9.4 52.9,9.5 52.8,9.5 52.8,9.6 53,9.6 		"/>
		<polygon points="52.9,9.2 52.7,9.2 52.7,9.3 52.9,9.3 		"/>
		<path d="M57.5,4.2L57.5,4.2l0.1-0.1L57.5,4.2c0-0.1,0-0.1,0-0.2l0,0l-0.1,0.1L57.5,4.2C57.4,4.2,57.4,4.2,57.5,4.2z"/>
		<polygon points="60.6,4.1 60.7,4 60.6,3.8 60.5,3.9 		"/>
		<polygon points="57.2,1 57.4,1.2 57.5,1.1 57.4,1 57.3,1 		"/>
		<polygon points="57.6,4.6 57.6,4.6 57.7,4.5 57.6,4.4 57.5,4.4 57.5,4.4 57.4,4.4 57.5,4.6 		"/>
		<polygon points="57,3.4 56.9,3.2 56.8,3.3 56.9,3.5 		"/>
		<polygon points="55.7,9.2 55.6,9 55.5,9.1 55.6,9.2 		"/>
		<path d="M57.6,3.4c0,0-0.1,0-0.1,0l-0.1,0l0,0.1l0.1,0c0,0,0.1,0,0.1,0L57.6,3.4L57.6,3.4L57.6,3.4z"/>
		<polygon points="57.6,3.9 57.5,4 57.7,4.1 57.7,4 		"/>
		<path d="M57.6,2C57.6,2,57.6,2,57.6,2l-0.1-0.1L57.4,2l0,0C57.5,2,57.5,2.1,57.6,2l0,0.1L57.6,2L57.6,2z"/>
		<rect x="55.1" y="6.1" transform="matrix(6.779955e-03 -1 1 6.779955e-03 48.6064 61.3123)" width="0.1" height="0.2"/>
		<polygon points="55,7 55.2,6.9 55.1,6.8 54.9,6.9 		"/>
		<polygon points="55.4,7.3 55.4,7.2 55.2,7.3 55.3,7.4 		"/>
		<polygon points="55.2,5.7 55,5.5 54.9,5.6 55.1,5.7 		"/>
		<path d="M54.9,3.7L54.9,3.7c-0.1,0-0.1,0-0.2,0l-0.1,0l0,0.1l0.1,0c0,0,0.1,0,0.1,0l0.1,0L54.9,3.7z"/>
		<path d="M55.6,8.7L55.6,8.7L55.6,8.7l-0.1-0.1l0,0c0,0-0.1,0-0.1,0.1l0,0l0.1,0.1l0,0c0,0,0,0,0,0l0,0.1L55.6,8.7L55.6,8.7z"/>
		<polygon points="55.3,10.2 55.2,10.3 55.4,10.4 55.5,10.4 		"/>
		<polygon points="55.2,10.8 55.4,10.9 55.5,10.8 55.3,10.7 		"/>
		<polygon points="54.9,5.3 54.7,5.2 54.6,5.3 54.8,5.4 		"/>
		<polygon points="53.4,8.1 53.3,8 53.2,8.1 53.4,8.2 		"/>
		<rect x="53.1" y="7.7" transform="matrix(0.8182 -0.575 0.575 0.8182 5.2016 31.9877)" width="0.1" height="0.2"/>
		<polygon points="53.4,8.6 53.2,8.4 53.1,8.5 53.3,8.6 		"/>
		<polygon points="53,7.7 52.8,7.8 52.9,7.9 53.1,7.8 		"/>
		<rect x="54.6" y="6.2" transform="matrix(0.1356 -0.9908 0.9908 0.1356 41.0723 59.6193)" width="0.2" height="0.1"/>
		<path d="M53,8.9L53,8.9l-0.1-0.1C52.9,8.8,52.9,8.8,53,8.9L53,8.9L53,8.7l-0.1,0c0,0-0.1,0-0.1,0l-0.1,0l0,0.1l0,0l0,0.1l0,0l0,0
			l0,0l0,0l0,0.2l0.1,0l0-0.2l0.2,0L53,8.9L53,8.9z"/>
		<polygon points="54.6,6.2 54.6,6.1 54.4,6.2 54.5,6.3 		"/>
		<rect x="54" y="6.6" transform="matrix(0.8472 -0.5313 0.5313 0.8472 4.7618 29.7733)" width="0.2" height="0.1"/>
		<polygon points="57.4,4.3 57.3,4.3 57.1,4.4 57.2,4.5 		"/>
		<polygon points="58.1,6.7 58,6.9 58.1,7 58.2,6.8 		"/>
		<polygon points="58.1,8.6 58,8.6 58,8.9 58.1,8.9 		"/>
		<polygon points="58.1,7.5 57.9,7.4 57.8,7.5 58,7.6 		"/>
		<rect x="58.4" y="6.1" transform="matrix(0.9988 -4.900220e-02 4.900220e-02 0.9988 -0.2296 2.8752)" width="0.2" height="0.1"/>
		<path d="M57.7,7.3L57.7,7.3l-0.1,0c0,0,0,0-0.1,0.1l0,0l0.1,0.1l0,0C57.6,7.4,57.7,7.4,57.7,7.3L57.7,7.3z"/>
		<rect x="58.2" y="10.1" transform="matrix(0.7831 -0.6219 0.6219 0.7831 6.283 38.4685)" width="0.1" height="0.2"/>
		<polygon points="58.5,7 58.3,7.1 58.4,7.2 58.5,7 		"/>
		<polygon points="58.2,4.1 58.1,4.3 58.2,4.4 58.3,4.2 		"/>
		<polygon points="58.5,3.8 58.5,3.7 58.3,3.8 58.3,3.9 		"/>
		<polygon points="56.5,9 56.3,9.1 56.4,9.2 56.6,9.1 		"/>
		<path d="M57,9C57,9,57,9,57,9l0.1-0.1L57,8.8l0,0C56.9,8.9,56.9,8.9,57,9l-0.1-0.1L57,9L57,9z"/>
		<polygon points="56.7,11.9 56.6,11.7 56.5,11.8 56.6,12 		"/>
		<path d="M56.8,10.4C56.8,10.4,56.8,10.3,56.8,10.4l0.1-0.1l-0.1-0.1l0,0c0,0,0,0,0,0C56.7,10.3,56.7,10.3,56.8,10.4l-0.1-0.1
			l0,0.1L56.8,10.4C56.8,10.4,56.8,10.4,56.8,10.4z"/>
		<path d="M56.6,9.4C56.6,9.4,56.6,9.4,56.6,9.4l0.1-0.1l-0.1,0l0,0C56.5,9.3,56.5,9.4,56.6,9.4l-0.1,0L56.6,9.4L56.6,9.4z"/>
		<polygon points="57.4,9.3 57.6,9.2 57.5,9.1 57.3,9.2 		"/>
		<path d="M57.6,10C57.6,10,57.6,9.9,57.6,10l0.1-0.1l-0.1-0.1l0,0C57.5,9.9,57.5,9.9,57.6,10l-0.1,0L57.6,10L57.6,10z"/>
		<polygon points="57.4,6.7 57.3,6.7 57.2,6.9 57.3,6.9 		"/>
		<polygon points="57.6,8 57.5,7.8 57.4,7.9 57.5,8 		"/>
		<polygon points="58.2,4.6 58.1,4.7 57.9,4.6 57.8,4.7 58,4.8 58,4.8 58.1,4.8 58.2,4.7 		"/>
		<rect x="60.1" y="4.5" transform="matrix(0.9161 -0.4009 0.4009 0.9161 3.2146 24.4897)" width="0.1" height="0.2"/>
		<path d="M60.1,3.2L60.1,3.2L60,3.3c0,0,0,0.1,0.1,0.1l0,0l0.1-0.1l0,0C60.1,3.3,60.1,3.3,60.1,3.2L60.1,3.2z"/>
		<polygon points="60.2,3.5 59.9,3.5 59.9,3.6 60.2,3.6 		"/>
		<polygon points="59.8,2 60,1.9 59.9,1.8 59.7,1.9 		"/>
		<path d="M59.7,2.8L59.7,2.8l0.1,0l0,0l0,0l0,0l0,0l0,0l0,0l0-0.2l-0.1,0l0,0l0,0l0,0l0,0l-0.1,0.1L59.7,2.8
			C59.7,2.7,59.7,2.7,59.7,2.8z"/>
		<polygon points="60.7,2.4 60.5,2.5 60.6,2.6 60.8,2.5 		"/>
		<polygon points="59.2,1.1 59.4,1 59.4,1 59.1,1 		"/>
		<polygon points="61.1,1.4 61.2,1.2 61.1,1.2 61,1.3 		"/>
		<polygon points="58.9,6.6 58.7,6.5 58.7,6.6 58.9,6.7 		"/>
		<polygon points="58.7,3.2 58.7,3.2 58.8,3.3 58.9,3.1 58.8,3 58.7,3.1 58.6,3 58.5,3.1 58.7,3.2 		"/>
		<path d="M59.3,6.9L59.3,6.9l0-0.1c0,0-0.1,0-0.1-0.1l0,0l-0.1,0.1l0,0C59.2,6.8,59.2,6.8,59.3,6.9L59.3,6.9z"/>
		<rect x="58.8" y="10.6" transform="matrix(0.1424 -0.9898 0.9898 0.1424 39.9699 67.3783)" width="0.2" height="0.1"/>
		<polygon points="58.7,4.5 58.8,4.5 58.8,4.4 58.7,4.3 58.7,4.4 58.7,4.4 		"/>
		<polygon points="60.1,2 60.2,1.8 60.1,1.7 60,1.9 		"/>
		<polygon points="60,1.3 59.9,1.4 59.9,1.4 59.8,1.5 60,1.6 60.1,1.5 60,1.5 60.1,1.4 		"/>
		<path d="M59.4,3.4L59.4,3.4C59.3,3.5,59.3,3.5,59.4,3.4L59.4,3.4l-0.1,0c0,0,0,0,0,0l0-0.1l-0.2-0.1l0,0.1l0.2,0.1l0,0l0,0l0,0
			l0.1,0.1l0.1-0.1c0,0,0,0,0.1,0l0.1,0L59.4,3.4z"/>
		<polygon points="59.2,6.1 59.2,6.2 59.3,6.4 59.4,6.3 		"/>
		<rect x="54.1" y="8.3" transform="matrix(0.9968 -8.021920e-02 8.021920e-02 0.9968 -0.4973 4.3679)" width="0.1" height="0.2"/>
		<polygon points="56.4,9.5 56.4,9.4 56.2,9.4 56.2,9.5 		"/>
		<path d="M54,8.7C54,8.6,54,8.6,54,8.7l-0.1-0.1l-0.1,0l-0.1,0l0,0.2l0.1,0L54,8.7C53.9,8.7,53.9,8.7,54,8.7L54,8.8L54,8.7L54,8.7z
			"/>
		<polygon points="54.6,8.4 54.5,8.5 54.7,8.6 54.8,8.5 		"/>
		<polygon points="54,10.4 53.8,10.3 53.7,10.4 53.9,10.5 		"/>
		<polygon points="54.5,11.6 54.4,11.6 54.4,11.8 54.4,11.7 54.2,11.8 54.3,11.9 54.4,11.8 54.4,11.8 54.6,11.8 		"/>
		<polygon points="53.8,11 53.6,10.9 53.6,11.1 53.7,11.2 		"/>
		<polygon points="54.5,12.5 54.3,12.6 54.3,12.7 54.5,12.6 		"/>
		<polygon points="54.4,13.4 54.2,13.3 54.2,13.5 54.4,13.5 		"/>
		<polygon points="54.4,10.4 54.3,10.3 54.1,10.4 54.2,10.5 		"/>
		<polygon points="56.8,3.6 56.7,3.6 56.6,3.7 56.7,3.8 		"/>
		<polygon points="53.5,8.9 53.5,8.9 53.5,8.8 53.5,8.7 53.4,8.7 53.4,8.7 53.4,8.7 53.3,8.7 53.3,8.7 53.1,8.7 53.1,8.8 53.3,8.8 
			53.3,8.8 53.3,8.8 53.3,8.8 53.4,9 		"/>
		<path d="M53.3,9.9c0,0,0-0.1,0-0.1l0-0.1l-0.1,0l0,0.1c0,0,0,0.1,0,0.1l0,0.1L53.3,9.9L53.3,9.9z"/>
		<rect x="53.2" y="11.3" transform="matrix(0.2675 -0.9636 0.9636 0.2675 27.9997 59.7029)" width="0.1" height="0.2"/>
		<polygon points="53.2,14.1 53.1,14 53,14.2 53.1,14.3 		"/>
		<rect x="53.6" y="8.7" transform="matrix(0.1674 -0.9859 0.9859 0.1674 36.0101 60.2392)" width="0.1" height="0.2"/>
		<polygon points="53.8,9.7 53.7,9.8 53.7,9.8 53.7,9.9 53.8,10 53.9,10 53.9,10 53.9,9.9 		"/>
		<rect x="53.7" y="9.2" transform="matrix(8.140087e-02 -0.9967 0.9967 8.140087e-02 40.0481 62.1416)" width="0.1" height="0.2"/>
		<polygon points="53.7,7.2 53.7,7.2 53.8,7.1 53.7,7 53.6,7.1 53.6,7.1 53.5,7 53.5,7 53.4,7.1 53.5,7.2 53.5,7.1 53.6,7.2 
			53.5,7.3 53.5,7.4 		"/>
		<path d="M52.9,14c0,0,0.1,0,0.1,0l0.1,0l0-0.1l-0.1,0c0,0-0.1,0-0.1,0l-0.1,0L52.9,14L52.9,14z"/>
		<polygon points="55.9,9.7 55.8,9.7 55.7,9.9 55.8,9.9 		"/>
		<path d="M55.7,9.6L55.7,9.6c0,0,0-0.1,0-0.1l0-0.1l-0.1,0l0,0.1c0,0,0,0.1,0,0.1l0,0.1L55.7,9.6l-0.2,0.2l0.1,0.1L55.7,9.6
			L55.7,9.6z"/>
		<path d="M54.7,7l0,0.1C54.6,7.1,54.6,7,54.7,7L54.7,7L54.5,7l0,0l0,0l0,0l0,0l0,0l0,0l0,0c0,0,0,0,0,0.1l0,0.1l0,0l0,0l0.1,0l0,0
			l0,0l0,0l0,0c0,0,0,0,0,0l0,0c0,0,0,0,0,0l0,0l0.1,0l0,0l0-0.2L54.7,7z"/>
		<path d="M55.4,11.6C55.4,11.6,55.4,11.5,55.4,11.6l-0.1-0.1l-0.1,0.1l0,0C55.3,11.6,55.3,11.6,55.4,11.6L55.4,11.6L55.4,11.6
			L55.4,11.6z"/>
		<polygon points="55.7,14.7 55.7,14.6 55.5,14.7 55.5,14.8 		"/>
		<polygon points="56.5,11.7 56.5,11.6 56.3,11.6 56.3,11.6 56.3,11.6 56.2,11.5 56.2,11.5 56.1,11.5 56.2,11.6 56.2,11.6 
			56.2,11.7 56.3,11.7 		"/>
		<path d="M56.1,11.9C56.1,11.9,56.1,11.9,56.1,11.9c0.1,0,0.1,0,0.1-0.1l0,0l-0.1-0.1l0,0c0,0,0,0,0,0c0,0,0,0,0,0L56.1,11.9
			L56.1,11.9L56.1,11.9z"/>
		<polygon points="56.2,11.3 56,11.2 55.9,11.3 56.1,11.4 		"/>
		<path d="M56,10.5L56,10.5L56,10.5l0-0.1c0,0-0.1,0-0.1,0l-0.1,0l0,0.1l0.1,0C55.9,10.5,55.9,10.5,56,10.5z"/>
		<polygon points="54.8,8 54.9,8.1 55,7.9 54.9,7.8 		"/>
		<path d="M55,7.6L55,7.6L55,7.6L55,7.6L55,7.6l0,0.2l0,0c0,0,0,0,0,0l0,0l0.1,0l0,0c0,0,0-0.1,0-0.1l0-0.1L55,7.6L55,7.6l-0.1-0.2
			l0-0.1l-0.1,0l0,0.2l0.1,0L55,7.6z"/>
		<polygon points="54.9,6.5 54.7,6.5 54.6,6.4 54.6,6.5 54.6,6.5 54.6,6.6 54.7,6.6 54.7,6.6 54.7,6.6 54.8,6.6 		"/>
		<path d="M54.8,11.4L54.8,11.4l0.1,0c0,0,0-0.1,0.1-0.1l0,0l-0.1-0.1l0,0C54.9,11.3,54.8,11.3,54.8,11.4L54.8,11.4z"/>
		<rect x="54.8" y="9.7" transform="matrix(0.9107 -0.4131 0.4131 0.9107 0.844 23.5448)" width="0.1" height="0.2"/>
		<polygon points="55.4,13.6 55.3,13.3 55.2,13.4 55.3,13.6 		"/>
		<polygon points="55.3,13.6 55.2,13.5 55,13.5 55.1,13.6 		"/>
		<path d="M55,9.5L55,9.5c-0.1,0-0.1,0-0.2,0.1l-0.1,0l0,0.1l0.1,0c0,0,0.1,0,0.1,0l0.1,0L55,9.5z"/>
	</g>
</g>
<g>
	<path class="st0" d="M86.6,18.3H69.2V1h17.3V18.3z M85.3,3.7h-2.3l-1.5,9.5h-0.3l-1.8-8.8c-0.1-0.6-0.3-0.7-0.9-0.7h-1.2
		c-0.5,0-0.8,0.1-0.9,0.7l-1.8,8.8h-0.3l-1.5-9.5h-2.5l2.4,11.4c0.1,0.5,0.3,0.6,0.8,0.6h1.6c0.5,0,0.7-0.1,0.8-0.6l1.7-8.7h0.3
		l1.7,8.7c0.1,0.5,0.3,0.6,0.8,0.6h1.6c0.6,0,0.7-0.1,0.8-0.6L85.3,3.7z"/>
	<path class="st0" d="M121.2,18.3h-17.3V1h17.3L121.2,18.3z M110.2,9.1V5.7h3.9c0.5,0,0.7,0,0.8,0.1c0.2,0.2,0.3,0.4,0.3,1.5
		c0,1.1-0.2,1.4-0.3,1.5c-0.1,0.1-0.3,0.2-0.8,0.2H110.2z M115.2,12.6c0,1.3,0.1,2.3,0.2,3.1h2.4c-0.1-0.6-0.1-1.7-0.2-3.2
		c-0.1-1.7-0.8-2-2-2.2v-0.2c1.4-0.2,2.2-0.8,2.2-2.9c0-1.8-0.3-2.4-0.8-2.9c-0.4-0.4-1-0.5-1.9-0.5h-7.3v12h2.5V11h3.4
		c0.7,0,1,0.1,1.2,0.3C115,11.5,115.1,11.7,115.2,12.6z"/>
	<path class="st0" d="M86.6,18.3H69.2V1h17.3V18.3z M85.3,3.7h-2.3l-1.5,9.5h-0.3l-1.8-8.8c-0.1-0.6-0.3-0.7-0.9-0.7h-1.2
		c-0.5,0-0.8,0.1-0.9,0.7l-1.8,8.8h-0.3l-1.5-9.5h-2.5l2.4,11.4c0.1,0.5,0.3,0.6,0.8,0.6h1.6c0.5,0,0.7-0.1,0.8-0.6l1.7-8.7h0.3
		l1.7,8.7c0.1,0.5,0.3,0.6,0.8,0.6h1.6c0.6,0,0.7-0.1,0.8-0.6L85.3,3.7z"/>
	<path class="st0" d="M155.9,18.5h-17.3V1.1l17.3,0V18.5z M150.5,9.9c0,2.6-0.2,3.2-0.7,3.6c-0.4,0.3-0.8,0.4-1.7,0.4h-3.3V5.9h3.3
		c0.9,0,1.3,0,1.7,0.3C150.3,6.6,150.5,7.3,150.5,9.9z M142.4,3.9v12h5.9c1.7,0,2.6-0.3,3.3-0.9c0.8-0.7,1.3-2.1,1.3-5.1
		c0-3-0.4-4.3-1.3-5.1c-0.7-0.6-1.6-0.9-3.3-0.9H142.4z"/>
	<g>
		<rect x="121.2" y="1" width="17.3" height="17.3"/>
		<polygon class="st0" points="124.4,5.6 124.4,3.7 134.6,3.7 134.6,7.6 132.6,7.6 132.6,5.6 128.2,5.6 128.2,8.6 131.6,8.6 
			131.6,10.4 128.2,10.4 128.2,13.8 132.7,13.8 132.7,11.6 134.7,11.6 134.7,15.7 124.4,15.7 124.4,13.8 126.1,13.8 126.1,5.6 		"/>
	</g>
	<g>
		<rect x="86.6" y="1" width="17.3" height="17.3"/>
		<polygon class="st0" points="99.4,13.8 99.4,15.7 91.1,15.7 91.1,13.8 94.1,13.8 94.1,5.6 91.1,5.6 91.1,3.7 99.4,3.7 99.4,5.6 
			96.3,5.6 96.3,13.8 		"/>
	</g>
</g>
<g>
	<path class="st1" d="M-0.2,28.5L1,27.8C1.1,28.4,1.5,29,2.1,29c0.4,0,0.7-0.2,0.7-0.6c0-0.6-0.7-0.8-1.4-1.2
		c-0.6-0.3-1.2-0.8-1.2-1.8c0-1,0.7-1.7,1.9-1.7c0.9,0,1.5,0.4,1.8,1.2l-1.1,0.7C2.7,25.1,2.4,25,2.1,25c-0.3,0-0.5,0.2-0.5,0.5
		c0,0.5,0.7,0.7,1.4,1.1c0.7,0.3,1.3,0.8,1.3,1.8c0,1.2-0.9,2-2.1,2C0.9,30.3,0.1,29.4-0.2,28.5z"/>
	<path class="st1" d="M5.3,23.8h4.1V25H6.7v1.1h2.2v1.2H6.7v1.5h2.8v1.2H5.3V23.8z"/>
	<path class="st1" d="M10.7,23.8h2.5c1.3,0,2.1,0.8,2.1,2c0,1.1-0.7,2-2.1,2h-1.1v2.5h-1.4V23.8z M13.1,26.5c0.5,0,0.8-0.3,0.8-0.7
		c0-0.5-0.3-0.7-0.8-0.7h-1v1.5H13.1z"/>
	<path class="st1" d="M17.6,25h-1.8v-1.2h4.9V25H19v5.1h-1.4V25z"/>
	<path class="st1" d="M21.6,23.8h4.1V25H23v1.1h2.2v1.2H23v1.5h2.8v1.2h-4.2V23.8z"/>
	<path class="st1" d="M27,23.8h1.5l1.5,3.8l1.5-3.8h1.5v6.4h-1.3v-3.7l-1.1,3.1h-0.9l-1.1-3.1v3.7H27V23.8z"/>
	<path class="st1" d="M34.3,23.8h2.4c1.1,0,1.9,0.6,1.9,1.7c0,0.6-0.3,1-0.6,1.2c0.6,0.2,1,0.7,1,1.6c0,1.2-0.9,1.9-2.2,1.9h-2.5
		V23.8z M36.7,26.2c0.5,0,0.7-0.2,0.7-0.6c0-0.4-0.2-0.6-0.7-0.6h-0.9v1.2H36.7z M36.7,28.9c0.7,0,0.9-0.3,0.9-0.7
		c0-0.5-0.3-0.8-0.9-0.8h-1v1.5H36.7z"/>
	<path class="st1" d="M40.1,23.8h4.1V25h-2.7v1.1h2.2v1.2h-2.2v1.5h2.8v1.2h-4.2V23.8z"/>
	<path class="st1" d="M45.5,23.8h2.4c1.3,0,2,0.8,2,1.8c0,0.8-0.4,1.4-1.1,1.7l1.8,2.8H49l-1.7-2.7h-0.5v2.7h-1.4V23.8z M47.9,26.3
		c0.4,0,0.7-0.2,0.7-0.7c0-0.5-0.3-0.7-0.7-0.7h-1v1.3H47.9z"/>
	<path class="st1" d="M53.4,29.6l2.3-2.9c0.3-0.4,0.5-0.7,0.5-1.1c0-0.4-0.3-0.7-0.7-0.7c-0.4,0-0.7,0.3-0.8,0.8l-1.2-0.2
		c0.1-0.9,0.8-1.7,2-1.7c1.3,0,2,0.8,2,1.9c0,0.6-0.2,1.1-0.6,1.6L55.4,29h2.2v1.2h-4.2V29.6z"/>
	<path class="st1" d="M58.4,28.3c0-0.7,0.3-1.2,0.8-1.5c-0.4-0.3-0.6-0.8-0.6-1.3c0-0.9,0.8-1.7,1.9-1.7c1.1,0,1.9,0.8,1.9,1.7
		c0,0.5-0.2,1-0.6,1.3c0.5,0.3,0.8,0.8,0.8,1.5c0,1.2-1,2-2.1,2C59.4,30.3,58.4,29.5,58.4,28.3z M61.4,28.3c0-0.6-0.4-0.9-0.9-0.9
		s-0.9,0.3-0.9,0.9c0,0.5,0.4,0.9,0.9,0.9S61.4,28.8,61.4,28.3z M61.3,25.5c0-0.4-0.3-0.7-0.7-0.7c-0.4,0-0.7,0.3-0.7,0.7
		c0,0.4,0.3,0.7,0.7,0.7C61,26.3,61.3,26,61.3,25.5z"/>
	<path class="st1" d="M71.4,23.3h0.8l-4,7.3h-0.8L71.4,23.3z"/>
	<path class="st1" d="M74.8,28.5l1.1-0.7C76,28.4,76.4,29,77,29c0.4,0,0.7-0.2,0.7-0.6c0-0.6-0.7-0.8-1.4-1.2
		c-0.6-0.3-1.2-0.8-1.2-1.8c0-1,0.7-1.7,1.9-1.7c0.9,0,1.5,0.4,1.8,1.2l-1.1,0.7C77.6,25.1,77.3,25,77,25c-0.3,0-0.5,0.2-0.5,0.5
		c0,0.5,0.7,0.7,1.4,1.1c0.7,0.3,1.3,0.8,1.3,1.8c0,1.2-0.9,2-2.1,2C75.8,30.3,75,29.4,74.8,28.5z"/>
	<path class="st1" d="M81.7,23.8h1.4l2.2,6.4h-1.5l-0.4-1.4h-1.9L81,30.2h-1.5L81.7,23.8z M82.9,27.5l-0.6-1.9l-0.6,1.9H82.9z"/>
	<path class="st1" d="M86.1,23.8h1.4l2.2,4v-4H91v6.4h-1.4l-2.2-4v4h-1.3V23.8z"/>
	<path class="st1" d="M94.8,23.8h4.2V25h-2.8v1.2h2.2v1.2h-2.2v2.7h-1.4V23.8z"/>
	<path class="st1" d="M100.1,23.8h2.4c1.3,0,2,0.8,2,1.8c0,0.8-0.4,1.4-1.1,1.7l1.8,2.8h-1.5l-1.7-2.7h-0.5v2.7h-1.4V23.8z
		 M102.4,26.3c0.4,0,0.7-0.2,0.7-0.7c0-0.5-0.3-0.7-0.7-0.7h-1v1.3H102.4z"/>
	<path class="st1" d="M107.6,23.8h1.4l2.2,6.4h-1.5l-0.4-1.4h-1.9l-0.4,1.4h-1.5L107.6,23.8z M108.9,27.5l-0.6-1.9l-0.6,1.9H108.9z"
		/>
	<path class="st1" d="M112,23.8h1.4l2.2,4v-4h1.3v6.4h-1.4l-2.2-4v4H112V23.8z"/>
	<path class="st1" d="M118.1,27c0-2.1,1.4-3.3,3.1-3.3c1.4,0,2.4,0.7,2.7,1.9l-1.3,0.3c-0.2-0.6-0.6-1-1.4-1c-0.9,0-1.6,0.7-1.6,2
		s0.8,2,1.6,2c0.8,0,1.2-0.5,1.4-1.1l1.3,0.3c-0.3,1.3-1.3,2-2.7,2C119.6,30.3,118.1,29.1,118.1,27z"/>
	<path class="st1" d="M125,23.8h1.4v6.4H125V23.8z"/>
	<path class="st1" d="M127.4,28.5l1.1-0.7c0.2,0.7,0.5,1.2,1.2,1.2c0.4,0,0.7-0.2,0.7-0.6c0-0.6-0.7-0.8-1.4-1.2
		c-0.6-0.3-1.2-0.8-1.2-1.8c0-1,0.7-1.7,1.9-1.7c0.9,0,1.5,0.4,1.8,1.2l-1.1,0.7c-0.2-0.5-0.4-0.7-0.8-0.7c-0.3,0-0.5,0.2-0.5,0.5
		c0,0.5,0.7,0.7,1.4,1.1c0.7,0.3,1.3,0.8,1.3,1.8c0,1.2-0.9,2-2.1,2C128.5,30.3,127.7,29.4,127.4,28.5z"/>
	<path class="st1" d="M132.5,27c0-2.1,1.4-3.3,3.1-3.3c1.4,0,2.4,0.7,2.7,1.9L137,26c-0.2-0.6-0.6-1-1.4-1c-0.9,0-1.6,0.7-1.6,2
		s0.8,2,1.6,2c0.8,0,1.2-0.5,1.4-1.1l1.3,0.3c-0.3,1.3-1.3,2-2.7,2C133.9,30.3,132.5,29.1,132.5,27z"/>
	<path class="st1" d="M139.1,27c0-2.2,1.5-3.3,3.1-3.3s3.1,1,3.1,3.3s-1.5,3.3-3.1,3.3S139.1,29.2,139.1,27z M143.8,27
		c0-1.4-0.8-2-1.7-2c-0.9,0-1.7,0.6-1.7,2c0,1.4,0.8,2,1.7,2C143,29,143.8,28.4,143.8,27z"/>
</g>
</svg>
